<?xml version="1.0" standalone="no"?><!DOCTYPE svg PUBLIC "-//W3C//DTD SVG 1.1//EN" "http://www.w3.org/Graphics/SVG/1.1/DTD/svg11.dtd"><svg t="1646231316450" class="icon" viewBox="0 0 1024 1024" version="1.1" xmlns="http://www.w3.org/2000/svg" p-id="8127" xmlns:xlink="http://www.w3.org/1999/xlink" width="32" height="32"><defs><style type="text/css"></style></defs><path d="M768 750.933333c-6.826667 0-13.653333-6.826667-17.066667-13.653333-30.72-157.013333-92.16-238.933333-139.946666-303.786667-17.066667-23.893333-30.72-44.373333-44.373334-64.853333-17.066667-27.306667-30.72-58.026667-34.133333-92.16-3.413333-13.653333-3.413333-27.306667-3.413333-37.546667 0-126.293333 112.64-238.933333 238.933333-238.933333s238.933333 112.64 238.933333 238.933333c0 10.24 0 23.893333-3.413333 37.546667-6.826667 34.133333-17.066667 64.853333-37.546667 92.16-10.24 20.48-27.306667 40.96-44.373333 64.853333-47.786667 64.853333-105.813333 146.773333-139.946667 303.786667 0 6.826667-6.826667 13.653333-13.653333 13.653333z m0-716.8c-109.226667 0-204.8 95.573333-204.8 204.8 0 10.24 0 20.48 3.413333 30.72 3.413333 30.72 13.653333 54.613333 30.72 78.506667 13.653333 20.48 27.306667 40.96 44.373334 64.853333 40.96 58.026667 92.16 129.706667 126.293333 249.173334 34.133333-119.466667 85.333333-191.146667 126.293333-249.173334 17.066667-20.48 30.72-44.373333 40.96-64.853333 17.066667-23.893333 27.306667-51.2 30.72-78.506667 3.413333-13.653333 3.413333-23.893333 3.413334-30.72 3.413333-109.226667-92.16-204.8-201.386667-204.8z m0 307.2c-58.026667 0-102.4-44.373333-102.4-102.4s44.373333-102.4 102.4-102.4 102.4 44.373333 102.4 102.4-44.373333 102.4-102.4 102.4z m0-170.666666c-37.546667 0-68.266667 30.72-68.266667 68.266666s30.72 68.266667 68.266667 68.266667 68.266667-30.72 68.266667-68.266667-30.72-68.266667-68.266667-68.266666z" fill="" p-id="8128"></path><path d="M870.4 1024h-750.933333c-58.026667 0-102.4-44.373333-102.4-102.4V238.933333c0-58.026667 44.373333-102.4 102.4-102.4h443.733333c10.24 0 17.066667 6.826667 17.066667 17.066667s-6.826667 17.066667-17.066667 17.066667h-443.733333c-37.546667 0-68.266667 30.72-68.266667 68.266666v682.666667c0 37.546667 30.72 68.266667 68.266667 68.266667h750.933333c37.546667 0 68.266667-30.72 68.266667-68.266667V358.4c0-10.24 6.826667-17.066667 17.066666-17.066667s17.066667 6.826667 17.066667 17.066667V921.6c0 58.026667-44.373333 102.4-102.4 102.4z" fill="" p-id="8129"></path><path d="M68.266667 989.866667c-3.413333 0-10.24 0-13.653334-3.413334-6.826667-6.826667-6.826667-17.066667 0-23.893333l546.133334-546.133333c6.826667-6.826667 17.066667-6.826667 23.893333 0s6.826667 17.066667 0 23.893333l-546.133333 546.133333c0 3.413333-6.826667 3.413333-10.24 3.413334z" fill="" p-id="8130"></path><path d="M921.6 989.866667c-3.413333 0-6.826667 0-10.24-3.413334l-426.666667-409.6c-6.826667-6.826667-6.826667-17.066667 0-23.893333 6.826667-6.826667 17.066667-6.826667 23.893334 0l426.666666 409.6c6.826667 6.826667 6.826667 17.066667 0 23.893333-3.413333 0-10.24 3.413333-13.653333 3.413334zM307.2 238.933333H204.8c-10.24 0-17.066667-6.826667-17.066667-17.066666S194.56 204.8 204.8 204.8h102.4c10.24 0 17.066667 6.826667 17.066667 17.066667S317.44 238.933333 307.2 238.933333zM204.8 546.133333c-54.613333 0-85.333333-30.72-85.333333-85.333333 0-40.96 34.133333-68.266667 105.813333-81.92-3.413333-6.826667-3.413333-13.653333-3.413333-20.48 0-10.24 6.826667-17.066667 17.066666-17.066667s17.066667 6.826667 17.066667 17.066667 10.24 20.48 27.306667 34.133333c20.48 17.066667 40.96 34.133333 40.96 68.266667C324.266667 491.52 307.2 546.133333 204.8 546.133333z m47.786667-136.533333c-44.373333 6.826667-98.986667 20.48-98.986667 51.2 0 34.133333 17.066667 51.2 51.2 51.2 85.333333 0 85.333333-37.546667 85.333333-51.2 0-17.066667-10.24-27.306667-30.72-44.373333-3.413333 0-6.826667-3.413333-6.826666-6.826667z" fill="" p-id="8131"></path><path d="M204.8 375.466667c-47.786667 0-85.333333-37.546667-85.333333-85.333334S157.013333 204.8 204.8 204.8s85.333333 37.546667 85.333333 85.333333S252.586667 375.466667 204.8 375.466667z m0-136.533334c-27.306667 0-51.2 23.893333-51.2 51.2S177.493333 341.333333 204.8 341.333333s51.2-23.893333 51.2-51.2S232.106667 238.933333 204.8 238.933333z" fill="" p-id="8132"></path></svg>