<?xml version="1.0" standalone="no"?><!DOCTYPE svg PUBLIC "-//W3C//DTD SVG 1.1//EN" "http://www.w3.org/Graphics/SVG/1.1/DTD/svg11.dtd"><svg t="1646231323651" class="icon" viewBox="0 0 1024 1024" version="1.1" xmlns="http://www.w3.org/2000/svg" p-id="8281" xmlns:xlink="http://www.w3.org/1999/xlink" width="32" height="32"><defs><style type="text/css"></style></defs><path d="M1006.933333 1024H17.066667c-10.24 0-17.066667-6.826667-17.066667-17.066667V17.066667C0 6.826667 6.826667 0 17.066667 0h989.866666c10.24 0 17.066667 6.826667 17.066667 17.066667v989.866666c0 10.24-6.826667 17.066667-17.066667 17.066667zM34.133333 989.866667h955.733334V34.133333H34.133333v955.733334z" fill="" p-id="8282"></path><path d="M938.666667 955.733333h-853.333334c-10.24 0-17.066667-6.826667-17.066666-17.066666v-853.333334c0-10.24 6.826667-17.066667 17.066666-17.066666h853.333334c10.24 0 17.066667 6.826667 17.066666 17.066666v853.333334c0 10.24-6.826667 17.066667-17.066666 17.066666zM102.4 921.6h819.2V102.4H102.4v819.2z" fill="" p-id="8283"></path><path d="M563.2 716.8c-6.826667 0-13.653333-3.413333-17.066667-13.653333l-102.4-354.986667-102.4 354.986667c-3.413333 10.24-13.653333 13.653333-20.48 10.24-10.24-3.413333-13.653333-13.653333-10.24-20.48l119.466667-409.6c3.413333-13.653333 27.306667-13.653333 34.133333 0l119.466667 409.6c3.413333 10.24-3.413333 17.066667-10.24 20.48-6.826667 3.413333-10.24 3.413333-10.24 3.413333z" fill="" p-id="8284"></path><path d="M512 580.266667h-136.533333c-10.24 0-17.066667-6.826667-17.066667-17.066667s6.826667-17.066667 17.066667-17.066667h136.533333c10.24 0 17.066667 6.826667 17.066667 17.066667s-6.826667 17.066667-17.066667 17.066667zM699.733333 716.8c-10.24 0-17.066667-6.826667-17.066666-17.066667v-307.2c0-10.24 6.826667-17.066667 17.066666-17.066666s17.066667 6.826667 17.066667 17.066666v307.2c0 10.24-6.826667 17.066667-17.066667 17.066667z" fill="" p-id="8285"></path><path d="M512 512m-17.066667 0a17.066667 17.066667 0 1 0 34.133334 0 17.066667 17.066667 0 1 0-34.133334 0Z" fill="" p-id="8286"></path></svg>