<?xml version="1.0" standalone="no"?><!DOCTYPE svg PUBLIC "-//W3C//DTD SVG 1.1//EN" "http://www.w3.org/Graphics/SVG/1.1/DTD/svg11.dtd"><svg t="1646231286755" class="icon" viewBox="0 0 1024 1024" version="1.1" xmlns="http://www.w3.org/2000/svg" p-id="7672" xmlns:xlink="http://www.w3.org/1999/xlink" width="32" height="32"><defs><style type="text/css"></style></defs><path d="M563.2 1006.933333s-3.413333 0 0 0l-549.546667-102.4c-6.826667-3.413333-13.653333-10.24-13.653333-17.066666V170.666667c0-6.826667 6.826667-13.653333 13.653333-17.066667l546.133334-136.533333c3.413333 0 10.24 0 13.653333 3.413333s6.826667 6.826667 6.826667 13.653333v955.733334c0 3.413333-3.413333 10.24-6.826667 13.653333-3.413333 3.413333-6.826667 3.413333-10.24 3.413333zM34.133333 873.813333l512 95.573334V54.613333L34.133333 184.32v689.493333z" fill="" p-id="7673"></path><path d="M1006.933333 938.666667h-443.733333c-10.24 0-17.066667-6.826667-17.066667-17.066667s6.826667-17.066667 17.066667-17.066667H989.866667v-785.066666H563.2c-10.24 0-17.066667-6.826667-17.066667-17.066667s6.826667-17.066667 17.066667-17.066667h443.733333c10.24 0 17.066667 6.826667 17.066667 17.066667v819.2c0 10.24-6.826667 17.066667-17.066667 17.066667zM358.4 699.733333c-6.826667 0-13.653333-6.826667-17.066667-13.653333l-68.266666-249.173333-68.266667 249.173333c-3.413333 6.826667-6.826667 13.653333-17.066667 13.653333-6.826667 0-13.653333-3.413333-17.066666-10.24l-102.4-307.2c-3.413333-10.24 3.413333-17.066667 10.24-20.48 10.24-3.413333 17.066667 3.413333 20.48 10.24l85.333333 252.586667 71.68-252.586667c3.413333-13.653333 27.306667-13.653333 34.133333 0l71.68 252.586667 85.333334-252.586667c3.413333-10.24 13.653333-13.653333 20.48-10.24 10.24 3.413333 13.653333 13.653333 10.24 20.48l-102.4 307.2c-3.413333 6.826667-10.24 10.24-17.066667 10.24z" fill="" p-id="7674"></path><path d="M904.533333 256h-341.333333c-10.24 0-17.066667-6.826667-17.066667-17.066667s6.826667-17.066667 17.066667-17.066666h341.333333c10.24 0 17.066667 6.826667 17.066667 17.066666s-6.826667 17.066667-17.066667 17.066667zM904.533333 392.533333h-334.506666c-10.24 0-17.066667-6.826667-17.066667-17.066666s6.826667-17.066667 17.066667-17.066667h334.506666c10.24 0 17.066667 6.826667 17.066667 17.066667s-6.826667 17.066667-17.066667 17.066666zM904.533333 529.066667h-341.333333c-10.24 0-17.066667-6.826667-17.066667-17.066667s6.826667-17.066667 17.066667-17.066667h341.333333c10.24 0 17.066667 6.826667 17.066667 17.066667s-6.826667 17.066667-17.066667 17.066667zM904.533333 665.6h-341.333333c-10.24 0-17.066667-6.826667-17.066667-17.066667s6.826667-17.066667 17.066667-17.066666h341.333333c10.24 0 17.066667 6.826667 17.066667 17.066666s-6.826667 17.066667-17.066667 17.066667zM904.533333 802.133333H580.266667c-10.24 0-17.066667-6.826667-17.066667-17.066666s6.826667-17.066667 17.066667-17.066667h324.266666c10.24 0 17.066667 6.826667 17.066667 17.066667s-6.826667 17.066667-17.066667 17.066666z" fill="" p-id="7675"></path></svg>