<?xml version="1.0" standalone="no"?><!DOCTYPE svg PUBLIC "-//W3C//DTD SVG 1.1//EN" "http://www.w3.org/Graphics/SVG/1.1/DTD/svg11.dtd"><svg t="1646229709298" class="icon" viewBox="0 0 1024 1024" version="1.1" xmlns="http://www.w3.org/2000/svg" p-id="6751" xmlns:xlink="http://www.w3.org/1999/xlink" width="32" height="32"><defs><style type="text/css"></style></defs><path d="M361.813333 921.6h-273.066666c-10.24 0-17.066667-6.826667-17.066667-17.066667v-614.4c0-3.413333 3.413333-10.24 3.413333-13.653333l273.066667-273.066667c6.826667 0 10.24-3.413333 13.653333-3.413333h409.6c10.24 0 17.066667 6.826667 17.066667 17.066667v341.333333c0 10.24-6.826667 17.066667-17.066667 17.066667s-17.066667-6.826667-17.066666-17.066667V34.133333H368.64L105.813333 296.96V887.466667h256c10.24 0 17.066667 6.826667 17.066667 17.066666s-6.826667 17.066667-17.066667 17.066667z" fill="" p-id="6752"></path><path d="M361.813333 307.2h-273.066666c-10.24 0-17.066667-6.826667-17.066667-17.066667s6.826667-17.066667 17.066667-17.066666h256V17.066667c0-10.24 6.826667-17.066667 17.066666-17.066667s17.066667 6.826667 17.066667 17.066667v273.066666c0 10.24-6.826667 17.066667-17.066667 17.066667z" fill="" p-id="6753"></path><path d="M764.586667 866.986667c-3.413333 0-6.826667 0-10.24-3.413334l-129.706667-105.813333c-3.413333-3.413333-6.826667-10.24-6.826667-13.653333 0-6.826667 3.413333-10.24 6.826667-13.653334l170.666667-105.813333c6.826667-3.413333 13.653333-3.413333 20.48 0l129.706666 105.813333c3.413333 3.413333 6.826667 10.24 6.826667 13.653334 0 6.826667-3.413333 10.24-6.826667 13.653333l-170.666666 105.813333c-3.413333 0-6.826667 3.413333-10.24 3.413334z m-98.986667-122.88l98.986667 85.333333 139.946666-88.746667-98.986666-85.333333-139.946667 88.746667z" fill="" p-id="6754"></path><path d="M805.546667 651.946667c-3.413333 0-6.826667 0-10.24-3.413334l-170.666667-105.813333c-3.413333-3.413333-6.826667-6.826667-6.826667-13.653333s3.413333-10.24 6.826667-13.653334l129.706667-85.333333c6.826667-3.413333 10.24-3.413333 17.066666 0l170.666667 85.333333c6.826667 3.413333 10.24 6.826667 10.24 13.653334s0 10.24-6.826667 13.653333L815.786667 648.533333c0 3.413333-6.826667 3.413333-10.24 3.413334z m-139.946667-122.88l136.533333 85.333333 98.986667-81.92-139.946667-68.266667-95.573333 64.853334zM508.586667 866.986667c-3.413333 0-6.826667 0-10.24-3.413334l-170.666667-105.813333c-3.413333-3.413333-6.826667-6.826667-6.826667-13.653333s3.413333-10.24 6.826667-13.653334l129.706667-105.813333c6.826667-3.413333 13.653333-6.826667 20.48 0l170.666666 105.813333c3.413333 3.413333 6.826667 6.826667 6.826667 13.653334s-3.413333 10.24-6.826667 13.653333l-129.706666 105.813333c-3.413333 0-6.826667 3.413333-10.24 3.413334z m-143.36-126.293334l139.946666 88.746667 98.986667-85.333333-139.946667-88.746667-98.986666 85.333333z" fill="" p-id="6755"></path><path d="M464.213333 651.946667c-3.413333 0-6.826667 0-10.24-3.413334l-129.706666-105.813333c-3.413333-3.413333-6.826667-10.24-6.826667-13.653333s3.413333-10.24 10.24-13.653334l170.666667-85.333333c6.826667-3.413333 13.653333-3.413333 17.066666 0l129.706667 85.333333c3.413333 3.413333 6.826667 10.24 6.826667 13.653334 0 6.826667-3.413333 10.24-6.826667 13.653333l-170.666667 105.813333c-3.413333 3.413333-6.826667 3.413333-10.24 3.413334z m-95.573333-119.466667l98.986667 81.92 136.533333-85.333333-98.986667-64.853334-136.533333 68.266667zM634.88 1024c-3.413333 0-6.826667 0-10.24-3.413333l-170.666667-102.4c-6.826667-3.413333-6.826667-10.24-6.826666-13.653334v-78.506666c0-10.24 6.826667-17.066667 17.066666-17.066667s17.066667 6.826667 17.066667 17.066667v68.266666l153.6 92.16 153.6-92.16v-68.266666c0-10.24 6.826667-17.066667 17.066667-17.066667s17.066667 6.826667 17.066666 17.066667v78.506666c0 6.826667-3.413333 10.24-6.826666 13.653334l-170.666667 102.4c-3.413333 3.413333-6.826667 3.413333-10.24 3.413333z" fill="" p-id="6756"></path></svg>