<?xml version="1.0" standalone="no"?><!DOCTYPE svg PUBLIC "-//W3C//DTD SVG 1.1//EN" "http://www.w3.org/Graphics/SVG/1.1/DTD/svg11.dtd"><svg t="1646229737780" class="icon" viewBox="0 0 1024 1024" version="1.1" xmlns="http://www.w3.org/2000/svg" p-id="7519" xmlns:xlink="http://www.w3.org/1999/xlink" width="32" height="32"><defs><style type="text/css"></style></defs><path d="M221.866667 887.466667c-10.24 0-17.066667-6.826667-17.066667-17.066667v-102.4c0-10.24 6.826667-17.066667 17.066667-17.066667s17.066667 6.826667 17.066666 17.066667v102.4c0 10.24-6.826667 17.066667-17.066666 17.066667zM324.266667 887.466667c-10.24 0-17.066667-6.826667-17.066667-17.066667v-204.8c0-10.24 6.826667-17.066667 17.066667-17.066667s17.066667 6.826667 17.066666 17.066667v204.8c0 10.24-6.826667 17.066667-17.066666 17.066667zM426.666667 887.466667c-10.24 0-17.066667-6.826667-17.066667-17.066667v-341.333333c0-10.24 6.826667-17.066667 17.066667-17.066667s17.066667 6.826667 17.066666 17.066667v341.333333c0 10.24-6.826667 17.066667-17.066666 17.066667zM802.133333 614.4h-273.066666c-10.24 0-17.066667-6.826667-17.066667-17.066667s6.826667-17.066667 17.066667-17.066666h273.066666c10.24 0 17.066667 6.826667 17.066667 17.066666s-6.826667 17.066667-17.066667 17.066667zM802.133333 750.933333h-273.066666c-10.24 0-17.066667-6.826667-17.066667-17.066666s6.826667-17.066667 17.066667-17.066667h273.066666c10.24 0 17.066667 6.826667 17.066667 17.066667s-6.826667 17.066667-17.066667 17.066666zM802.133333 887.466667h-273.066666c-10.24 0-17.066667-6.826667-17.066667-17.066667s6.826667-17.066667 17.066667-17.066667h273.066666c10.24 0 17.066667 6.826667 17.066667 17.066667s-6.826667 17.066667-17.066667 17.066667z" fill="" p-id="7520"></path><path d="M904.533333 1024h-785.066666c-10.24 0-17.066667-6.826667-17.066667-17.066667v-716.8c0-3.413333 3.413333-10.24 3.413333-13.653333l273.066667-273.066667c3.413333 0 10.24-3.413333 13.653333-3.413333h512c10.24 0 17.066667 6.826667 17.066667 17.066667v989.866666c0 10.24-6.826667 17.066667-17.066667 17.066667zM136.533333 989.866667h750.933334V34.133333H399.36L136.533333 296.96V989.866667z" fill="" p-id="7521"></path><path d="M392.533333 307.2h-273.066666c-10.24 0-17.066667-6.826667-17.066667-17.066667s6.826667-17.066667 17.066667-17.066666H375.466667V17.066667c0-10.24 6.826667-17.066667 17.066666-17.066667s17.066667 6.826667 17.066667 17.066667v273.066666c0 10.24-6.826667 17.066667-17.066667 17.066667zM631.466667 477.866667c-102.4 0-187.733333-85.333333-187.733334-187.733334S529.066667 102.4 631.466667 102.4c13.653333 0 23.893333 0 37.546666 3.413333 6.826667 0 13.653333 10.24 13.653334 17.066667V238.933333h116.053333c6.826667 0 13.653333 6.826667 17.066667 13.653334 3.413333 13.653333 3.413333 23.893333 3.413333 37.546666 0 102.4-85.333333 187.733333-187.733333 187.733334z m0-341.333334C546.133333 136.533333 477.866667 204.8 477.866667 290.133333s68.266667 153.6 153.6 153.6S785.066667 375.466667 785.066667 290.133333V273.066667h-119.466667c-10.24 0-17.066667-6.826667-17.066667-17.066667V136.533333h-17.066666z" fill="" p-id="7522"></path><path d="M836.266667 273.066667h-170.666667c-10.24 0-17.066667-6.826667-17.066667-17.066667v-170.666667c0-10.24 6.826667-17.066667 17.066667-17.066666 102.4 0 187.733333 85.333333 187.733333 187.733333 0 10.24-6.826667 17.066667-17.066666 17.066667zM682.666667 238.933333h136.533333c-6.826667-71.68-64.853333-126.293333-136.533333-136.533333v136.533333z" fill="" p-id="7523"></path></svg>