<?xml version="1.0" standalone="no"?><!DOCTYPE svg PUBLIC "-//W3C//DTD SVG 1.1//EN" "http://www.w3.org/Graphics/SVG/1.1/DTD/svg11.dtd"><svg t="1702019428387" class="icon" viewBox="0 0 1024 1024" version="1.1" xmlns="http://www.w3.org/2000/svg" p-id="56626" width="16" height="16" xmlns:xlink="http://www.w3.org/1999/xlink"><path d="M246.7 178v117h-117c-15.3 0-27.8 12.4-27.8 27.8V846c0 15.3 12.4 27.8 27.8 27.8h619.8c15.3 0 27.8-12.4 27.8-27.8V729h117c15.3 0 27.8-12.4 27.8-27.8V178c0-15.3-12.4-27.8-27.8-27.8H274.5c-15.4 0-27.8 12.5-27.8 27.8z m0 165.2h482.4v482.4H150.2V343.2h96.5z m48.2-48.3v-96.5h578.8v482.4h-96.5V322.7c0-15.3-12.4-27.8-27.8-27.8H294.9z m0 0" p-id="56627" fill="#e6e6e6"></path></svg>