<?xml version="1.0" standalone="no"?><!DOCTYPE svg PUBLIC "-//W3C//DTD SVG 1.1//EN" "http://www.w3.org/Graphics/SVG/1.1/DTD/svg11.dtd"><svg t="1645972897998" class="icon" viewBox="0 0 1024 1024" version="1.1" xmlns="http://www.w3.org/2000/svg" p-id="2036" xmlns:xlink="http://www.w3.org/1999/xlink" width="32" height="32"><defs><style type="text/css"></style></defs><path d="M1024 960a64 64 0 0 1-64 64H64a64 64 0 0 1-64-64V320a64 64 0 0 1 64-64h896a64 64 0 0 1 64 64v640z" fill="#EDD87E" p-id="2037"></path><path d="M960 128H512V64a64 64 0 0 0-64-64H64a64 64 0 0 0-64 64v256a64 64 0 0 1 64-64h896a64 64 0 0 1 64 64V192a64 64 0 0 0-64-64z" fill="#434854" p-id="2038"></path><path d="M960 224H64a64 64 0 0 0-64 64v32a64 64 0 0 1 64-64h896a64 64 0 0 1 64 64V288a64 64 0 0 0-64-64z" fill="" p-id="2039"></path><path d="M128 192h768v64H128z" fill="#EAEAEA" p-id="2040"></path><path d="M749.312 471.808c-24.544-24.512-70.624-18.112-95.136 6.368l-202.304 202.304-88.736-88.736a62.784 62.784 0 0 0-88.768 88.736l133.152 133.152a62.784 62.784 0 0 0 88.736 0l255.264-251.232c24.448-24.448 22.272-66.08-2.208-90.592z" fill="" p-id="2041"></path></svg>