<?xml version="1.0" standalone="no"?><!DOCTYPE svg PUBLIC "-//W3C//DTD SVG 1.1//EN" "http://www.w3.org/Graphics/SVG/1.1/DTD/svg11.dtd"><svg t="1662129827340" class="icon" viewBox="0 0 1024 1024" version="1.1" xmlns="http://www.w3.org/2000/svg" p-id="1033" xmlns:xlink="http://www.w3.org/1999/xlink" width="200" height="200"><path d="M318.621538 499.003077v383.842461h156.278154c76.721231 0 131.387077-13.390769 164.076308-40.172307 32.689231-26.860308 49.073231-70.971077 49.073231-132.489846 0-81.053538-17.250462-136.507077-51.672616-166.360616-34.422154-29.932308-88.221538-44.819692-161.476923-44.819692H318.621538z m0-375.256615v268.051692h153.6c63.645538 0 109.804308-12.209231 138.31877-36.627692 28.593231-24.418462 42.850462-55.138462 42.850461-92.16 0-49.309538-14.099692-84.834462-42.220307-106.57477-28.120615-21.819077-74.436923-32.689231-138.948924-32.68923h-153.6zM185.895385 15.202462h289.004307c99.800615 0 176.758154 21.582769 230.793846 64.669538 54.035692 43.165538 81.132308 104.211692 81.132308 183.138462 0 42.299077-14.336 80.580923-42.929231 115.003076-28.514462 34.500923-71.364923 56.083692-128.393846 64.748308 64.039385 9.609846 114.215385 37.021538 150.685539 82.077539 36.391385 45.134769 54.587077 111.300923 54.587077 198.498461 0 88.457846-28.987077 155.175385-86.961231 200.388923-57.974154 45.056-144.305231 67.662769-258.914462 67.662769H185.816615V15.202462z" fill="#333333" p-id="1034"></path></svg>