<?xml version="1.0" standalone="no"?><!DOCTYPE svg PUBLIC "-//W3C//DTD SVG 1.1//EN" "http://www.w3.org/Graphics/SVG/1.1/DTD/svg11.dtd"><svg t="1646235652357" class="icon" viewBox="0 0 1024 1024" version="1.1" xmlns="http://www.w3.org/2000/svg" p-id="41682" xmlns:xlink="http://www.w3.org/1999/xlink" width="32" height="32"><defs><style type="text/css"></style></defs><path d="M828.952381 85.333333a109.714286 109.714286 0 0 1 109.592381 104.545524L938.666667 195.047619v341.333333a109.714286 109.714286 0 0 1-104.545524 109.592381L828.952381 646.095238h-146.285714v-73.142857h146.285714a36.571429 36.571429 0 0 0 36.400762-33.060571L865.52381 536.380952V195.047619a36.571429 36.571429 0 0 0-33.060572-36.400762L828.952381 158.47619H487.619048a36.571429 36.571429 0 0 0-36.400762 33.060572L451.047619 195.047619v146.285714h-73.142857V195.047619a109.714286 109.714286 0 0 1 104.545524-109.592381L487.619048 85.333333h341.333333z" fill="#000000" p-id="41683"></path><path d="M536.380952 377.904762H195.047619A109.714286 109.714286 0 0 0 85.333333 487.619048v341.333333A109.714286 109.714286 0 0 0 195.047619 938.666667h341.333333a109.714286 109.714286 0 0 0 109.714286-109.714286V487.619048a109.714286 109.714286 0 0 0-109.714286-109.714286z" fill="#000000" p-id="41684"></path><path d="M231.058286 817.517714c58.660571-21.333333 103.107048-42.22781 133.315047-62.659047 32.01219 23.113143 76.897524 43.105524 134.680381 59.977143 7.996952-14.189714 17.310476-28.42819 27.989334-42.666667-50.663619-9.752381-92.891429-25.746286-126.659048-47.981714 33.767619-34.669714 57.782857-78.652952 71.996952-131.998477h52.004572v-42.666666h-126.659048a800.329143 800.329143 0 0 0-12.019809-49.322667l-52.004572 3.998476 13.336381 45.348572H207.043048v42.666666h50.663619c15.11619 52.419048 38.66819 95.98781 70.680381 130.633143-30.232381 21.333333-71.558095 39.131429-124.001524 53.345524a425.691429 425.691429 0 0 1 26.672762 41.325714z m133.315047-122.660571c-26.648381-26.672762-46.226286-60.879238-58.660571-102.64381h116.004571c-8.899048 40.862476-28.013714 75.093333-57.344 102.64381z" fill="#FFFFFF" p-id="41685"></path><path d="M690.639238 219.428571L804.571429 510.585905h-60.464762l-26.745905-70.314667H674.864762a145.944381 145.944381 0 0 0-22.796191-42.227809h54.076953c-25.33181-70.314667-38.448762-106.398476-39.399619-108.27581A199.484952 199.484952 0 0 1 658.285714 264.43581h-1.414095l-0.097524 1.365333a64.365714 64.365714 0 0 1-2.706285 9.898667c-1.877333 7.484952-3.291429 12.653714-4.217905 15.457523-0.804571 1.609143-10.044952 27.550476-27.794286 77.872762a146.041905 146.041905 0 0 0-45.958095-22.235428L625.93219 219.428571h64.707048z" fill="#000000" p-id="41686"></path></svg>