<?xml version="1.0" standalone="no"?><!DOCTYPE svg PUBLIC "-//W3C//DTD SVG 1.1//EN" "http://www.w3.org/Graphics/SVG/1.1/DTD/svg11.dtd"><svg t="1646236027072" class="icon" viewBox="0 0 1280 1024" version="1.1" xmlns="http://www.w3.org/2000/svg" p-id="42549" xmlns:xlink="http://www.w3.org/1999/xlink" width="40" height="32"><defs><style type="text/css"></style></defs><path d="M411.0848 214.1312h489.5872v31.1552H411.0848z" fill="#B3B3B3" p-id="42550"></path><path d="M938.9184 373.1072c-5.0816-57.2288-13.6832-114.0992-21.2864-171.0848a74.9824 74.9824 0 0 0-8.2432-18.752H389.9008a417.024 417.024 0 0 0-12.1856 48.2816c-9.728 73.1264-15.0016 147.072-28.992 219.4176a521.0496 521.0496 0 0 1-44.4416 104.5632v269.568h691.2v-269.568a368.768 368.768 0 0 1-56.5632-182.4256z m-152.2688 166.528a24.0256 24.0256 0 0 0-29.6192 24.6912 107.4304 107.4304 0 0 1-214.5792-0.896 23.1936 23.1936 0 0 0-28.1856-23.7568H381.6064l-0.0384-0.1024 38.0672-312.4096h460.3904l38.1184 312.4608H786.6496z" fill="#E5E7E6" p-id="42551"></path><path d="M650.7776 295.5008h112.2048c12.608 0 23.3856 2.368 23.3856 17.4848s-10.816 17.4848-23.3856 17.4464H536.7808c-12.5824 0-23.3856-2.2912-23.3856-17.4464s10.8032-17.536 23.3856-17.4848h113.9968z" fill="#29ABE2" p-id="42552"></path><path d="M650.2016 401.2928h-112.1664c-13.0688 0-24.896-1.6128-24.5632-18.0096 0.2816-15.2064 11.4944-16.9088 23.9104-16.9088h224.384c13.0688 0 24.9216 1.5872 24.5888 17.9584-0.256 15.2448-11.5072 17.024-23.8848 16.96h-112.2688z" fill="#23B08D" p-id="42553"></path><path d="M648.1152 472.2816h-110.6048c-13.184 0-24.8064-2.0096-24.2432-18.3552 0.512-15.2448 11.9936-16.3712 24.2432-16.3712h224.3968c13.2224 0 24.8192 2.0352 24.2432 18.3296-0.5248 15.2576-11.9552 16.64-24.2432 16.6016h-113.9584l0.1664-0.2048z" fill="#F4C258" p-id="42554"></path><path d="M304.2816 825.1008h691.2v31.168h-691.2z" fill="#B3B3B3" p-id="42555"></path></svg>