<?xml version="1.0" standalone="no"?><!DOCTYPE svg PUBLIC "-//W3C//DTD SVG 1.1//EN" "http://www.w3.org/Graphics/SVG/1.1/DTD/svg11.dtd"><svg t="1646225166776" class="icon" viewBox="0 0 1024 1024" version="1.1" xmlns="http://www.w3.org/2000/svg" p-id="9842" xmlns:xlink="http://www.w3.org/1999/xlink" width="32" height="32"><defs><style type="text/css"></style></defs><path d="M594.336 310.816a547.632 547.632 0 0 0-21.824-65.056c-77.472 17.12-102.704-50.144-70.24-97.2a89.776 89.776 0 0 0-53.92-37.488c-32.528 49.744-121.248 24.688-113.36-43.296h-75.856c6.384 72.848-81.376 88.224-118.656 43.232-18.368 12.096-43.44 17.296-48.8 43.072 35.616 42.736 3.088 109.52-70.24 91.68C13.504 266.352 5.664 287.968 0 310.816c61.424 9.728 61.424 103.728 0 113.456 5.728 22.688 13.504 44.32 21.456 64.848 77.472-17.072 103.424 50.208 70.24 97.248 12.272 18.368 29.728 31.504 54.304 37.712 32.528-49.824 121.04-24.768 113.136 43.376h75.856c-6.592-73.136 81.328-88.384 118.88-43.376 18.32-12.112 43.552-17.664 48.4-43.232-35.28-42.944-2.8-109.344 70.24-91.68a579.328 579.328 0 0 0 21.776-64.848c-64.048-15.776-64.048-97.952 0-113.504h0.048zM297.168 480.144a112.608 112.608 0 1 1 0-225.216 112.608 112.608 0 0 1 0 225.216z m0 0" fill="#6362F6" p-id="9843"></path><path d="M1024 551.712a399.584 399.584 0 0 0-15.776-47.024c-56.016 12.384-74.24-36.24-50.784-70.272a64.784 64.784 0 0 0-38.976-27.088c-23.536 35.984-87.664 17.84-81.952-31.296h-54.848c4.608 52.656-58.816 63.776-85.76 31.248-13.28 8.752-31.408 12.496-35.28 31.136 25.744 30.896 2.24 79.168-50.768 66.272-5.744 14.896-11.424 30.512-15.52 47.024 44.4 7.024 44.4 75.008 0 82.032 4.144 16.384 9.76 32.032 15.52 46.88 56-12.352 74.768 36.288 50.768 70.32 8.896 13.28 21.488 22.752 39.264 27.248 23.52-36.016 87.488-17.888 81.776 31.36h54.848c-4.768-52.896 58.784-63.904 85.936-31.36 13.232-8.752 31.488-12.768 34.992-31.248-25.504-31.04-2.032-79.04 50.784-66.288 5.984-14.88 11.328-30.544 15.744-46.88-46.304-11.408-46.304-70.816 0-82.064H1024z m-214.848 122.432c-44.944 0-81.376-36.448-81.376-81.408s36.432-81.392 81.376-81.392a81.392 81.392 0 1 1 0 162.8z m0 0" fill="#9A9FDE" p-id="9844"></path><path d="M667.488 777.168a276.736 276.736 0 0 0-10.96-32.672c-38.912 8.592-51.568-25.168-35.28-48.8a44.944 44.944 0 0 0-27.04-18.816c-16.336 24.992-60.896 12.368-56.928-21.744h-38.096c3.216 36.576-40.848 44.304-59.568 21.696-9.232 6.096-21.808 8.688-24.496 21.632 17.872 21.472 1.536 54.992-35.28 46.032-3.984 10.336-7.92 21.184-10.768 32.672 30.848 4.896 30.848 52.08 0 56.976 2.864 11.392 6.784 22.24 10.768 32.544 38.896-8.56 51.936 25.2 35.28 48.832 6.16 9.232 14.912 15.808 27.264 18.944 16.336-25.024 60.768-12.416 56.8 21.76h38.096c-3.312-36.72 40.816-44.352 59.664-21.76 9.2-6.08 21.856-8.864 24.304-21.712-17.696-21.552-1.392-54.912 35.28-46.016 4.144-10.336 7.856-21.232 10.944-32.56-32.16-7.936-32.16-49.184 0.016-57.008z m-149.2 85.008a56.528 56.528 0 1 1 0-113.04 56.528 56.528 0 0 1 0 113.04z m0 0" fill="#9A9FDE" p-id="9845"></path></svg>