<?xml version="1.0" standalone="no"?><!DOCTYPE svg PUBLIC "-//W3C//DTD SVG 1.1//EN" "http://www.w3.org/Graphics/SVG/1.1/DTD/svg11.dtd"><svg t="1646228653298" class="icon" viewBox="0 0 1024 1024" version="1.1" xmlns="http://www.w3.org/2000/svg" p-id="5685" xmlns:xlink="http://www.w3.org/1999/xlink" width="32" height="32"><defs><style type="text/css"></style></defs><path d="M1006.933333 273.066667H17.066667C6.826667 273.066667 0 266.24 0 256S6.826667 238.933333 17.066667 238.933333h989.866666c10.24 0 17.066667 6.826667 17.066667 17.066667s-6.826667 17.066667-17.066667 17.066667zM699.733333 375.466667h-443.733333c-10.24 0-17.066667-6.826667-17.066667-17.066667s6.826667-17.066667 17.066667-17.066667h443.733333c10.24 0 17.066667 6.826667 17.066667 17.066667s-6.826667 17.066667-17.066667 17.066667zM1006.933333 477.866667h-750.933333c-10.24 0-17.066667-6.826667-17.066667-17.066667s6.826667-17.066667 17.066667-17.066667h750.933333c10.24 0 17.066667 6.826667 17.066667 17.066667s-6.826667 17.066667-17.066667 17.066667zM699.733333 580.266667h-443.733333c-10.24 0-17.066667-6.826667-17.066667-17.066667s6.826667-17.066667 17.066667-17.066667h443.733333c10.24 0 17.066667 6.826667 17.066667 17.066667s-6.826667 17.066667-17.066667 17.066667zM1006.933333 682.666667h-750.933333c-10.24 0-17.066667-6.826667-17.066667-17.066667s6.826667-17.066667 17.066667-17.066667h750.933333c10.24 0 17.066667 6.826667 17.066667 17.066667s-6.826667 17.066667-17.066667 17.066667zM699.733333 785.066667H17.066667c-10.24 0-17.066667-6.826667-17.066667-17.066667s6.826667-17.066667 17.066667-17.066667h682.666666c10.24 0 17.066667 6.826667 17.066667 17.066667s-6.826667 17.066667-17.066667 17.066667z" fill="" p-id="5686"></path><path d="M187.733333 682.666667c-3.413333 0-6.826667 0-10.24-3.413334l-170.666666-136.533333c-3.413333-3.413333-6.826667-6.826667-6.826667-13.653333 0-3.413333 0-10.24 3.413333-13.653334l170.666667-170.666666c6.826667-3.413333 13.653333-3.413333 20.48-3.413334 6.826667 3.413333 10.24 10.24 10.24 17.066667v307.2c0 6.826667-3.413333 13.653333-10.24 17.066667h-6.826667z m-146.773333-153.6l129.706667 102.4v-232.106667l-129.706667 129.706667z" fill="" p-id="5687"></path></svg>