<?xml version="1.0" standalone="no"?><!DOCTYPE svg PUBLIC "-//W3C//DTD SVG 1.1//EN" "http://www.w3.org/Graphics/SVG/1.1/DTD/svg11.dtd"><svg t="1646231702625" class="icon" viewBox="0 0 1024 1024" version="1.1" xmlns="http://www.w3.org/2000/svg" p-id="31429" xmlns:xlink="http://www.w3.org/1999/xlink" width="32" height="32"><defs><style type="text/css"></style></defs><path d="M512 1002.666667c270.997333 0 490.666667-219.669333 490.666667-490.666667S782.997333 21.333333 512 21.333333 21.333333 241.002667 21.333333 512s219.669333 490.666667 490.666667 490.666667z m0 21.333333C229.226667 1024 0 794.773333 0 512S229.226667 0 512 0s512 229.226667 512 512-229.226667 512-512 512z" fill="#024089" p-id="31430"></path><path d="M708.565333 522.666667H522.666667a21.333333 21.333333 0 0 1 0-42.666667h185.301333l-25.450667-25.450667a21.333333 21.333333 0 0 1 30.165334-30.165333l60.352 60.330667c4.629333 4.629333 6.677333 10.88 6.165333 16.917333a21.290667 21.290667 0 0 1-6.186667 16.917333l-60.330666 60.352a21.333333 21.333333 0 1 1-30.165334-30.186666l26.048-26.048z m-377.898666 149.333333h277.184v-63.850667a21.333333 21.333333 0 1 1 42.666666 0v82.624a21.333333 21.333333 0 0 1-21.184 23.893334h-320a21.333333 21.333333 0 0 1-21.333333-21.333334v-384a21.333333 21.333333 0 0 1 21.333333-21.333333h320a21.333333 21.333333 0 0 1 21.184 23.893333v82.624a21.333333 21.333333 0 0 1-42.666666 0V330.666667H330.666667v341.333333z" fill="#024089" p-id="31431"></path></svg>