<?xml version="1.0" standalone="no"?><!DOCTYPE svg PUBLIC "-//W3C//DTD SVG 1.1//EN" "http://www.w3.org/Graphics/SVG/1.1/DTD/svg11.dtd"><svg t="1646229705168" class="icon" viewBox="0 0 1024 1024" version="1.1" xmlns="http://www.w3.org/2000/svg" p-id="6598" xmlns:xlink="http://www.w3.org/1999/xlink" width="32" height="32"><defs><style type="text/css"></style></defs><path d="M460.8 921.6h-375.466667c-10.24 0-17.066667-6.826667-17.066666-17.066667v-614.4c0-3.413333 3.413333-10.24 3.413333-13.653333l273.066667-273.066667c3.413333 0 10.24-3.413333 13.653333-3.413333h409.6c10.24 0 17.066667 6.826667 17.066667 17.066667v512c0 10.24-6.826667 17.066667-17.066667 17.066666s-17.066667-6.826667-17.066667-17.066666V34.133333H365.226667L102.4 296.96V887.466667h358.4c10.24 0 17.066667 6.826667 17.066667 17.066666s-6.826667 17.066667-17.066667 17.066667z" fill="" p-id="6599"></path><path d="M358.4 307.2h-273.066667c-10.24 0-17.066667-6.826667-17.066666-17.066667s6.826667-17.066667 17.066666-17.066666H341.333333V17.066667c0-10.24 6.826667-17.066667 17.066667-17.066667s17.066667 6.826667 17.066667 17.066667v273.066666c0 10.24-6.826667 17.066667-17.066667 17.066667zM733.866667 921.6c-64.853333 0-119.466667-54.613333-119.466667-119.466667s54.613333-119.466667 119.466667-119.466666 119.466667 54.613333 119.466666 119.466666-54.613333 119.466667-119.466666 119.466667z m0-204.8c-47.786667 0-85.333333 37.546667-85.333334 85.333333s37.546667 85.333333 85.333334 85.333334 85.333333-37.546667 85.333333-85.333334-37.546667-85.333333-85.333333-85.333333z" fill="" p-id="6600"></path><path d="M733.866667 1024c-122.88 0-221.866667-98.986667-221.866667-221.866667s98.986667-221.866667 221.866667-221.866666 221.866667 98.986667 221.866666 221.866666c0 10.24-6.826667 17.066667-17.066666 17.066667s-17.066667-6.826667-17.066667-17.066667c0-102.4-85.333333-187.733333-187.733333-187.733333S546.133333 699.733333 546.133333 802.133333s85.333333 187.733333 187.733334 187.733334c54.613333 0 105.813333-23.893333 139.946666-61.44 6.826667-6.826667 17.066667-6.826667 23.893334 0 6.826667 6.826667 6.826667 17.066667 0 23.893333-40.96 44.373333-102.4 71.68-163.84 71.68z" fill="" p-id="6601"></path><path d="M887.466667 887.466667c-64.853333 0-68.266667-51.2-68.266667-78.506667v-6.826667c0-10.24 6.826667-17.066667 17.066667-17.066666s17.066667 6.826667 17.066666 17.066666v6.826667c0 30.72 3.413333 44.373333 34.133334 44.373333 13.653333 0 20.48-3.413333 27.306666-6.826666 6.826667-10.24 6.826667-27.306667 6.826667-37.546667v-6.826667c0-10.24 10.24-17.066667 17.066667-17.066666 10.24 0 17.066667 6.826667 17.066666 17.066666v6.826667c0 13.653333 0 40.96-17.066666 61.44-13.653333 10.24-30.72 17.066667-51.2 17.066667z" fill="" p-id="6602"></path></svg>