<?xml version="1.0" standalone="no"?><!DOCTYPE svg PUBLIC "-//W3C//DTD SVG 1.1//EN" "http://www.w3.org/Graphics/SVG/1.1/DTD/svg11.dtd"><svg t="1646229713529" class="icon" viewBox="0 0 1024 1024" version="1.1" xmlns="http://www.w3.org/2000/svg" p-id="6905" xmlns:xlink="http://www.w3.org/1999/xlink" width="32" height="32"><defs><style type="text/css"></style></defs><path d="M539.23857 919.301746H28.515378c-10.214464 0-17.024106-6.809643-17.024106-17.024107v-612.86783c0-3.404821 3.404821-10.214464 3.404821-13.619285l272.385703-272.385703c3.404821 0 10.214464-3.404821 13.619285-3.404821h442.626766c10.214464 0 17.024106 6.809643 17.024106 17.024106v442.626767c0 10.214464-6.809643 17.024106-17.024106 17.024106s-17.024106-6.809643-17.024106-17.024106V34.048213H307.710723L45.539485 296.219451V885.253533h493.699085c10.214464 0 17.024106 6.809643 17.024107 17.024106s-6.809643 17.024106-17.024107 17.024107z" fill="" p-id="6906"></path><path d="M300.901081 306.433915h-272.385703c-10.214464 0-17.024106-6.809643-17.024106-17.024106S18.300914 272.385702 28.515378 272.385702h255.361596V17.024106c0-10.214464 6.809643-17.024106 17.024107-17.024106s17.024106 6.809643 17.024106 17.024106v272.385703c0 10.214464-6.809643 17.024106-17.024106 17.024106z" fill="" p-id="6907"></path><path d="M583.501247 1021.446384c-3.404821 0-6.809643 0-10.214464-3.404821-6.809643-3.404821-6.809643-13.619285-6.809643-20.428928l54.477141-173.645885-143.002494-102.144639c-6.809643-3.404821-6.809643-13.619285-6.809642-20.428927s10.214464-10.214464 17.024106-10.214464h180.455528l54.47714-173.645885c3.404821-6.809643 10.214464-10.214464 17.024107-10.214464s13.619285 3.404821 17.024106 10.214464l54.477141 173.645885h180.455527c6.809643 0 13.619285 3.404821 17.024107 10.214464s0 13.619285-6.809643 20.428927l-146.407315 105.54946 54.477141 173.645885c3.404821 6.809643 0 13.619285-6.809643 20.428928-6.809643 3.404821-13.619285 3.404821-20.428927 0l-146.407316-105.54946-146.407315 105.54946h-6.809642z m-44.262677-296.219451l115.763924 81.71571c6.809643 3.404821 6.809643 13.619285 6.809642 20.428928l-44.262676 132.78803 115.763923-81.715711c6.809643-3.404821 13.619285-3.404821 20.428928 0l115.763923 81.715711-44.262676-132.78803c-3.404821-6.809643 0-13.619285 6.809642-20.428928l115.763924-81.71571h-139.597673c-6.809643 0-13.619285-3.404821-17.024106-10.214464l-51.072319-136.192851-44.262677 132.78803c-3.404821 6.809643-10.214464 10.214464-17.024106 10.214463h-139.597673z" fill="" p-id="6908"></path></svg>