<?xml version="1.0" standalone="no"?><!DOCTYPE svg PUBLIC "-//W3C//DTD SVG 1.1//EN" "http://www.w3.org/Graphics/SVG/1.1/DTD/svg11.dtd"><svg t="1646231330741" class="icon" viewBox="0 0 1024 1024" version="1.1" xmlns="http://www.w3.org/2000/svg" p-id="8435" xmlns:xlink="http://www.w3.org/1999/xlink" width="32" height="32"><defs><style type="text/css"></style></defs><path d="M542.72 972.8c-143.36 0-259.413333-58.026667-327.68-163.84-6.826667-6.826667-3.413333-17.066667 3.413333-23.893333 6.826667-6.826667 17.066667-3.413333 23.893334 3.413333 64.853333 95.573333 170.666667 150.186667 300.373333 150.186667 143.36 0 259.413333-75.093333 317.44-204.8h-133.12c-47.786667 88.746667-109.226667 136.533333-180.906667 136.533333-109.226667 0-197.973333-88.746667-221.866666-218.453333 0-3.413333 0-10.24 3.413333-13.653334s6.826667-6.826667 13.653333-6.826666h563.2v-27.306667-23.893333c0-17.066667 0-37.546667-3.413333-61.44-23.893333-150.186667-116.053333-276.48-235.52-317.44-10.24-3.413333-13.653333-13.653333-10.24-20.48 3.413333-10.24 13.653333-13.653333 20.48-10.24 133.12 47.786667 232.106667 184.32 259.413333 344.746666 3.413333 23.893333 6.826667 47.786667 6.826667 64.853334v68.266666c0 6.826667-6.826667 13.653333-17.066667 13.653334H358.4c23.893333 102.4 98.986667 170.666667 184.32 170.666666 75.093333 0 126.293333-68.266667 157.013333-126.293333 3.413333-6.826667 10.24-10.24 13.653334-10.24h170.666666c6.826667 0 10.24 3.413333 13.653334 6.826667s3.413333 10.24 3.413333 17.066666c-61.44 160.426667-191.146667 252.586667-358.4 252.586667z" fill="" p-id="8436"></path><path d="M747.52 529.066667H389.12c-10.24 0-17.066667-6.826667-17.066667-17.066667s6.826667-17.066667 17.066667-17.066667h337.92c-23.893333-95.573333-88.746667-163.84-167.253333-170.666666-10.24 0-17.066667-10.24-17.066667-17.066667 0-10.24 10.24-17.066667 17.066667-17.066667 102.4 10.24 180.906667 95.573333 201.386666 218.453334 0 3.413333 0 10.24-3.413333 13.653333s-6.826667 6.826667-10.24 6.826667z" fill="" p-id="8437"></path><path d="M208.213333 1006.933333c-23.893333 0-51.2-6.826667-68.266666-20.48C34.133333 904.533333 95.573333 607.573333 273.066667 365.226667c85.333333-119.466667 194.56-221.866667 300.373333-283.306667C679.253333 17.066667 771.413333 3.413333 822.613333 40.96c34.133333 23.893333 51.2 68.266667 47.786667 129.706667 0 10.24-6.826667 17.066667-17.066667 17.066666-6.826667 0-17.066667-3.413333-17.066666-13.653333-6.826667-37.546667-23.893333-40.96-30.72-40.96-61.44-13.653333-215.04 126.293333-368.64 341.333333-191.146667 262.826667-218.453333 385.706667-204.8 440.32 3.413333 20.48 13.653333 34.133333 30.72 44.373334 6.826667 3.413333 10.24 13.653333 6.826666 23.893333-6.826667 13.653333-20.48 20.48-37.546666 23.893333h-23.893334zM750.933333 51.2c-40.96 0-98.986667 20.48-160.426666 58.026667-102.4 61.44-208.213333 160.426667-290.133334 276.48-174.08 242.346667-221.866667 512-139.946666 573.44 13.653333 10.24 40.96 17.066667 61.44 13.653333h3.413333c-13.653333-13.653333-23.893333-30.72-27.306667-54.613333-17.066667-92.16 54.613333-249.173333 211.626667-467.626667 64.853333-88.746667 283.306667-378.88 402.773333-351.573333 3.413333 0 10.24 3.413333 17.066667 6.826666-3.413333-13.653333-13.653333-27.306667-23.893333-37.546666-17.066667-13.653333-34.133333-17.066667-54.613334-17.066667z" fill="" p-id="8438"></path><path d="M167.253333 563.2c-10.24 0-17.066667-6.826667-17.066666-17.066667 0-184.32 126.293333-341.333333 303.786666-382.293333 10.24-3.413333 17.066667 3.413333 20.48 13.653333 3.413333 10.24-3.413333 17.066667-13.653333 20.48C296.96 232.106667 184.32 375.466667 184.32 546.133333c0 6.826667-6.826667 17.066667-17.066667 17.066667z" fill="" p-id="8439"></path></svg>