<?xml version="1.0" standalone="no"?><!DOCTYPE svg PUBLIC "-//W3C//DTD SVG 1.1//EN" "http://www.w3.org/Graphics/SVG/1.1/DTD/svg11.dtd"><svg t="1646231339030" class="icon" viewBox="0 0 1024 1024" version="1.1" xmlns="http://www.w3.org/2000/svg" p-id="8588" xmlns:xlink="http://www.w3.org/1999/xlink" width="32" height="32"><defs><style type="text/css"></style></defs><path d="M1006.933333 1024H17.066667c-10.24 0-17.066667-6.826667-17.066667-17.066667V17.066667C0 6.826667 6.826667 0 17.066667 0h989.866666c10.24 0 17.066667 6.826667 17.066667 17.066667v989.866666c0 10.24-6.826667 17.066667-17.066667 17.066667zM34.133333 989.866667h955.733334V34.133333H34.133333v955.733334z" fill="" p-id="8589"></path><path d="M324.266667 716.8c-10.24 0-17.066667-6.826667-17.066667-17.066667v-375.466666c0-6.826667 6.826667-17.066667 13.653333-17.066667 92.16-13.653333 153.6-3.413333 187.733334 27.306667 23.893333 20.48 34.133333 51.2 34.133333 85.333333 0 44.373333-20.48 78.506667-58.026667 102.4-40.96 23.893333-98.986667 30.72-146.773333 13.653333v160.426667c3.413333 13.653333-3.413333 20.48-13.653333 20.48z m17.066666-215.04c37.546667 17.066667 92.16 13.653333 129.706667-6.826667 20.48-10.24 40.96-34.133333 40.96-71.68 0-27.306667-6.826667-47.786667-23.893333-61.44-27.306667-23.893333-75.093333-30.72-146.773334-20.48v160.426667zM665.6 716.8c-34.133333 0-64.853333-13.653333-81.92-27.306667-6.826667-6.826667-6.826667-17.066667 0-23.893333 6.826667-6.826667 17.066667-6.826667 23.893333 0 13.653333 13.653333 54.613333 27.306667 81.92 13.653333 17.066667-6.826667 23.893333-23.893333 23.893334-47.786666 0-34.133333-20.48-44.373333-61.44-58.026667-34.133333-10.24-75.093333-27.306667-75.093334-78.506667 0-37.546667 17.066667-64.853333 47.786667-78.506666 40.96-17.066667 92.16-3.413333 119.466667 20.48 6.826667 6.826667 6.826667 17.066667 0 23.893333-6.826667 6.826667-17.066667 6.826667-23.893334 0-17.066667-17.066667-54.613333-23.893333-81.92-13.653333-17.066667 6.826667-27.306667 23.893333-27.306666 44.373333 0 27.306667 17.066667 34.133333 54.613333 47.786667 34.133333 10.24 81.92 27.306667 81.92 88.746666 0 51.2-27.306667 71.68-44.373333 78.506667-10.24 6.826667-23.893333 10.24-37.546667 10.24z" fill="" p-id="8590"></path><path d="M938.666667 955.733333h-853.333334c-10.24 0-17.066667-6.826667-17.066666-17.066666v-853.333334c0-10.24 6.826667-17.066667 17.066666-17.066666h853.333334c10.24 0 17.066667 6.826667 17.066666 17.066666v853.333334c0 10.24-6.826667 17.066667-17.066666 17.066666zM102.4 921.6h819.2V102.4H102.4v819.2z" fill="" p-id="8591"></path></svg>