<?xml version="1.0" standalone="no"?><!DOCTYPE svg PUBLIC "-//W3C//DTD SVG 1.1//EN" "http://www.w3.org/Graphics/SVG/1.1/DTD/svg11.dtd"><svg t="1620310158624" class="icon" viewBox="0 0 2779 1024" version="1.1" xmlns="http://www.w3.org/2000/svg" p-id="10809" width="86.84375" height="32" xmlns:xlink="http://www.w3.org/1999/xlink"><defs><style type="text/css"></style></defs><path d="M2642.066286 968.082286c3.693714 9.179429 9.984 23.698286 14.189714 34.157714-24.868571 14.518857-56.612571 21.76-95.195429 21.76H2534.4v-36.571429h29.44c9.069714 0 39.204571 0 78.262857-19.346285zM2461.257143 987.428571v36.571429h-146.285714v-36.571429h146.285714z m-219.428572 0v36.571429h-146.285714v-36.571429h146.285714z m-877.714285 0v36.571429h-146.285715v-36.571429h146.285715z m-438.857143 0v36.571429h-146.285714v-36.571429h146.285714z m-219.428572 0v36.571429h-146.285714v-36.571429h146.285714z m438.857143 0v36.571429h-146.285714v-36.571429h146.285714z m438.857143 0v36.571429h-146.285714v-36.571429h146.285714z m219.428572 0v36.571429h-146.285715v-36.571429h146.285715z m-1316.571429 0v36.571429h-146.285714v-36.571429h146.285714z m1536 0v36.571429h-146.285714v-36.571429h146.285714zM64.987429 904.338286c19.785143 25.563429 43.739429 54.747429 98.816 75.008-7.058286 17.92-11.593143 29.257143-13.677715 34.121143-77.494857-26.258286-107.812571-80.420571-115.126857-89.344zM2775.771429 837.485714c0 21.430857-3.803429 35.108571-9.764572 53.577143-5.961143 18.468571-25.746286 42.642286-36.717714 53.613714l-27.794286-24.100571c10.898286-13.787429 21.833143-29.403429 27.794286-42.386286 7.021714-15.36 9.362286-30.171429 9.910857-40.704zM36.315429 775.168c-2.962286 41.837714 2.816 77.933714 17.334857 108.251429a3597.531429 3597.531429 0 0 0-31.926857 17.298285C12.434286 877.604571 0 855.113143 0 825.856v-50.688zM36.571429 607.085714v146.285715H0v-146.285715h36.571429z m1375.085714-332.8v219.428572h219.428571v36.571428h-219.428571v219.428572h-36.571429v-219.428572h-219.428571v-36.571428h219.428571v-219.428572h36.571429zM2779.428571 592.457143v146.285714h-36.571428v-146.285714h36.571428zM36.571429 387.657143v146.285714H0v-146.285714h36.571429z m2742.857142-20.845714v146.285714h-36.571428v-146.285714h36.571428z m-9.545142-208.457143c3.657143 7.314286 9.545143 46.445714 9.545142 57.417143v117.028571h-36.571428V248.685714c0-76.726857-8.045714-81.334857-7.058286-81.554285 8.521143-1.974857 19.858286-4.900571 34.084572-8.777143zM3.657143 168.228571l36.571428 7.314286C36.571429 190.171429 36.571429 204.8 36.571429 219.428571v76.8H0V194.56c0.146286-8.777143 0.731429-17.554286 3.657143-26.331429zM2640.457143 14.628571c43.885714 14.628571 84.918857 50.944 107.702857 92.342858l-30.134857 20.772571C2693.851429 91.428571 2669.714286 62.171429 2629.485714 51.2zM152.685714 10.861714l11.922286 34.267429c-40.228571 10.971429-72.484571 38.217143-92.342857 66.706286l-31.232-20.004572S81.517714 30.683429 152.685714 10.861714zM588.8 0v36.571429h-146.285714V0h146.285714z m219.428571 0v36.571429h-146.285714V0h146.285714z m-438.857142 0v36.571429h-146.285715V0h146.285715z m1536 0v36.571429h-146.285715V0h146.285715z m219.428571 0v36.571429h-146.285714V0h146.285714z m219.428571 0v36.571429h-146.285714V0h146.285714z m219.428572 0v36.571429h-146.285714V0h146.285714z m-1316.571429 0v36.571429h-146.285714V0h146.285714z m438.857143 0v36.571429h-146.285714V0h146.285714z m-219.428571 0v36.571429h-146.285715V0h146.285715z m-438.857143 0v36.571429h-146.285714V0h146.285714z" fill="#13227a" p-id="10810"></path></svg>