<?xml version="1.0" standalone="no"?><!DOCTYPE svg PUBLIC "-//W3C//DTD SVG 1.1//EN" "http://www.w3.org/Graphics/SVG/1.1/DTD/svg11.dtd"><svg t="1620198768317" class="icon" viewBox="0 0 1383 1024" version="1.1" xmlns="http://www.w3.org/2000/svg" p-id="8993" xmlns:xlink="http://www.w3.org/1999/xlink" width="43.21875" height="32"><defs><style type="text/css"></style></defs><path d="M565.040432 207.567568H841.755676c0.027676 0 0.041514-138.378378 0.041513-138.378379H565.095784c-0.041514 0-0.055351 138.378378-0.055352 138.378379zM518.918919 69.189189c0-25.475459 20.618378-46.121514 46.176865-46.121513H841.755676a46.163027 46.163027 0 0 1 46.176865 46.107675v138.406054c0 25.461622-20.632216 46.107676-46.176865 46.107676H565.095784a46.163027 46.163027 0 0 1-46.176865-46.107676V69.175351zM1026.310919 207.567568h276.701405c0.041514 0 0.055351-138.378378 0.055352-138.378379H1026.352432c-0.027676 0-0.041514 138.378378-0.041513 138.378379zM980.175568 69.189189c0-25.475459 20.632216-46.121514 46.176864-46.121513h276.659892A46.163027 46.163027 0 0 1 1349.189189 69.175351v138.406054c0 25.461622-20.618378 46.107676-46.176865 46.107676H1026.352432a46.163027 46.163027 0 0 1-46.176864-46.107676V69.175351z" p-id="8994" fill="#2c2c2c"></path><path d="M1331.227676 1014.770162c29.114811 0 52.556108-22.666378 52.556108-50.646486V380.540541c0-28.021622-23.524324-50.743351-52.556108-50.743352H419.909189V50.674162C419.909189 22.611027 396.412541 0 367.42227 0H52.486919C23.524324 0 0 22.694054 0 50.674162v913.435676c0 14.031568 5.881081 26.707027 15.36 35.770811a53.372541 53.372541 0 0 0 37.196108 14.889513h860.395243V968.648649H52.556108a7.264865 7.264865 0 0 1-5.12-1.937298c-0.968649-0.927135-1.314595-916.037189-1.314594-916.037189 0-2.131027 2.504649-4.552649 6.365405-4.552648h314.935351c3.90227 0 6.365405 2.380108 6.365406 4.552648v325.258379h957.44c3.90227 0 6.434595 2.435459 6.434594 4.608v583.583135c0 2.158703-2.463135 4.524973-6.434594 4.524973h-180.030271v46.121513h180.030271z" p-id="8995" fill="#2c2c2c"></path><path d="M922.527135 991.716324m-23.067676 0a23.067676 23.067676 0 1 0 46.135352 0 23.067676 23.067676 0 1 0-46.135352 0Z" p-id="8996" fill="#2c2c2c"></path><path d="M1141.621622 991.716324m-23.067676 0a23.067676 23.067676 0 1 0 46.135351 0 23.067676 23.067676 0 1 0-46.135351 0Z" p-id="8997" fill="#2c2c2c"></path></svg>