<?xml version="1.0" standalone="no"?><!DOCTYPE svg PUBLIC "-//W3C//DTD SVG 1.1//EN" "http://www.w3.org/Graphics/SVG/1.1/DTD/svg11.dtd"><svg t="1620306942055" class="icon" viewBox="0 0 1024 1024" version="1.1" xmlns="http://www.w3.org/2000/svg" p-id="7553" xmlns:xlink="http://www.w3.org/1999/xlink" width="32" height="32"><defs><style type="text/css"></style></defs><path d="M366.95 56.883h233.216a25.6 25.6 0 0 1 25.6 25.6v62.567a25.6 25.6 0 0 1-25.6 25.6H366.95a25.6 25.6 0 0 1-25.6-25.6V82.483a25.6 25.6 0 0 1 25.6-25.6z m341.3 0h233.267a25.6 25.6 0 0 1 25.6 25.6v62.567a25.6 25.6 0 0 1-25.6 25.6H708.25a25.6 25.6 0 0 1-25.6-25.6V82.483a25.6 25.6 0 0 1 25.6-25.6zM215.04 102.4H128a25.6 25.6 0 0 0-25.6 25.6v768a25.6 25.6 0 0 0 25.6 25.6h768a25.6 25.6 0 0 0 25.6-25.6V303.565a25.6 25.6 0 0 0-25.6-25.6H266.24a25.6 25.6 0 0 1-25.6-25.6V128a25.6 25.6 0 0 0-25.6-25.6z m69.427 5.683v119.45h631.45a51.2 51.2 0 0 1 51.2 51.2v637.235a51.2 51.2 0 0 1-51.2 51.2H108.032a51.2 51.2 0 0 1-51.2-51.2V108.032a51.2 51.2 0 0 1 51.2-51.2h125.184a51.2 51.2 0 0 1 51.2 51.2z" p-id="7554" fill="#2c2c2c"></path></svg>