<?xml version="1.0" standalone="no"?><!DOCTYPE svg PUBLIC "-//W3C//DTD SVG 1.1//EN" "http://www.w3.org/Graphics/SVG/1.1/DTD/svg11.dtd"><svg t="1645972771227" class="icon" viewBox="0 0 1024 1024" version="1.1" xmlns="http://www.w3.org/2000/svg" p-id="1573" xmlns:xlink="http://www.w3.org/1999/xlink" width="32" height="32"><defs><style type="text/css"></style></defs><path d="M800 800m-224 0a224 224 0 1 0 448 0 224 224 0 1 0-448 0Z" fill="#EACA44" p-id="1574"></path><path d="M800 672l40 88 88 16-64 64 15.936 88L800 888 720.064 928 736 840l-64-64 88-16z" fill="#FFFFFF" p-id="1575"></path><path d="M960 128H512V64a64 64 0 0 0-64-64H64a64 64 0 0 0-64 64v256a64 64 0 0 1 64-64h896a64 64 0 0 1 64 64V192a64 64 0 0 0-64-64z" fill="#434854" p-id="1576"></path><path d="M512 800a288 288 0 0 1 288-288 287.296 287.296 0 0 1 224 107.168V320a64 64 0 0 0-64-64H64a64 64 0 0 0-64 64v640a64 64 0 0 0 64 64h555.168A287.296 287.296 0 0 1 512 800z" fill="#EDD87E" p-id="1577"></path><path d="M960 224H64a64 64 0 0 0-64 64v32a64 64 0 0 1 64-64h896a64 64 0 0 1 64 64V288a64 64 0 0 0-64-64z" fill="" p-id="1578"></path><path d="M128 192h768v64H128z" fill="#EAEAEA" p-id="1579"></path></svg>