<?xml version="1.0" standalone="no"?><!DOCTYPE svg PUBLIC "-//W3C//DTD SVG 1.1//EN" "http://www.w3.org/Graphics/SVG/1.1/DTD/svg11.dtd"><svg t="1699249332328" class="icon" viewBox="0 0 1024 1024" version="1.1" xmlns="http://www.w3.org/2000/svg" p-id="1352" xmlns:xlink="http://www.w3.org/1999/xlink" width="200" height="200"><path d="M190.72 360.3456C269.824 294.7072 383.488 225.28 512 225.28c128.512 0 242.1248 69.4272 321.3312 135.0656a911.36 911.36 0 0 1 120.5248 121.2928l6.8608 8.6528 1.2288 1.536 0.6144 0.8192 0.512 0.6656 0.1536 0.2048v0.0512s0.0512 0.0512-24.576 18.432l24.6272 18.432h-0.0512l-0.1536 0.256-0.512 0.6656-1.8432 2.3552c-1.536 2.048-3.8912 4.9664-6.8608 8.704a911.872 911.872 0 0 1-120.5248 121.2928c-79.2064 65.5872-192.8192 135.0144-321.3312 135.0144s-242.1248-69.4272-321.28-135.0656a912.0768 912.0768 0 0 1-120.576-121.2928 533.6576 533.6576 0 0 1-8.704-11.008l-0.512-0.6656-0.1536-0.2048v-0.0512s-0.0512-0.0512 24.576-18.432c-24.6272-18.3808-24.6272-18.3808-24.576-18.432l0.1536-0.256 0.512-0.6656a295.4752 295.4752 0 0 1 8.704-11.008 911.616 911.616 0 0 1 120.5248-121.2928zM85.3504 512l-24.576-18.432-13.7728 18.432 13.7216 18.432 24.576-18.432z m39.424 0a850.2784 850.2784 0 0 0 105.1648 104.3456C305.152 678.7072 404.8384 737.28 512 737.28c107.0592 0 206.848-58.5728 282.0608-120.9344A849.7152 849.7152 0 0 0 899.2256 512a849.664 849.664 0 0 0-105.1136-104.3456C718.848 345.2928 619.1104 286.72 512 286.72c-107.1104 0-206.848 58.5728-282.112 120.9344A850.2272 850.2272 0 0 0 124.7744 512z m813.8752 0l24.6272 18.432 13.7216-18.432-13.7216-18.432-24.576 18.432z" fill="#496189" p-id="1353"></path><path d="M374.6304 512a137.3696 137.3696 0 1 1 274.7392 0 137.3696 137.3696 0 0 1-274.7392 0zM512 436.0704a75.9296 75.9296 0 1 0 0 151.8592 75.9296 75.9296 0 0 0 0-151.8592z" fill="#496189" p-id="1354"></path></svg>