<?xml version="1.0" standalone="no"?><!DOCTYPE svg PUBLIC "-//W3C//DTD SVG 1.1//EN" "http://www.w3.org/Graphics/SVG/1.1/DTD/svg11.dtd"><svg t="1646316928855" class="icon" viewBox="0 0 1187 1024" version="1.1" xmlns="http://www.w3.org/2000/svg" p-id="5394" xmlns:xlink="http://www.w3.org/1999/xlink" width="37.09375" height="32"><defs><style type="text/css"></style></defs><path d="M591.619164 303.326125l-134.993793 63.531367-87.359085-70.479103 224.342551-110.182754 225.332782 113.164961-85.369412 67.496896zM592.614001 670.616555l135.005307-63.531367 87.34757 70.479103-223.347714 111.177591-226.318407-114.159798 85.369412-67.496896zM387.138801 576.309735l-91.324613 60.556069L0.992534 486.970189l298.789486-151.873775 87.356781 70.479104-162.798553 81.394671zM963.867657 486.970189l-162.79625-81.394671 87.356781-70.479104 298.787184 151.873775-293.826818 150.890452-91.324614-61.550906z" fill="#5D7690" p-id="5395"></path><path d="M592.614001 1024L0.992534 704.362701 0 542.56359 593.608837 862.191677l593.606535-315.657953v162.793948z" fill="#5D7690" p-id="5396"></path><path d="M1155.313819 333.560405L598.463271 613.712826 58.241693 359.997265 623.564471 97.7496z" fill="#5D7690" p-id="5397"></path><path d="M1040.083191 336.337657l-439.872047 221.295864L173.472321 357.220013l446.564165-207.156288z" fill="#B9D2E2" p-id="5398"></path><path d="M621.839627 108.234532m-80.190274 0a80.190274 80.190274 0 1 0 160.380548 0 80.190274 80.190274 0 1 0-160.380548 0Z" fill="#B9D2E2" p-id="5399"></path><path d="M621.839627 216.469064c59.777702 0 108.234532-48.45683 108.234532-108.234532s-48.45683-108.234532-108.234532-108.234532-108.234532 48.45683-108.234532 108.234532 48.459133 108.234532 108.234532 108.234532z m0-181.585305c40.511955 0 73.353076 32.838818 73.353076 73.350773s-32.84112 73.350773-73.353076 73.350773c-40.509652 0-73.34847-32.84112-73.34847-73.350773s32.838818-73.350773 73.34847-73.350773z" fill="#5D7690" p-id="5400"></path><path d="M157.223324 340.261735m-80.190274 0a80.190274 80.190274 0 1 0 160.380548 0 80.190274 80.190274 0 1 0-160.380548 0Z" fill="#B9D2E2" p-id="5401"></path><path d="M157.223324 448.496267c59.777702 0 108.234532-48.45683 108.234532-108.234532s-48.45683-108.234532-108.234532-108.234532-108.234532 48.45683-108.234532 108.234532 48.459133 108.234532 108.234532 108.234532z m0-181.583002c40.509652 0 73.353076 32.838818 73.353075 73.350773s-32.843423 73.350773-73.353075 73.350772-73.350773-32.838818-73.350773-73.350772 32.843423-73.350773 73.350773-73.350773z" fill="#5D7690" p-id="5402"></path><path d="M594.207581 542.12144m-80.190274 0a80.190274 80.190274 0 1 0 160.380548 0 80.190274 80.190274 0 1 0-160.380548 0Z" fill="#B9D2E2" p-id="5403"></path><path d="M594.205279 650.355972c59.777702 0 108.234532-48.45683 108.234532-108.234532s-48.45683-108.234532-108.234532-108.234532c-59.775399 0-108.234532 48.45683-108.234533 108.234532s48.459133 108.234532 108.234533 108.234532z m0-181.585305c40.511955 0 73.353076 32.838818 73.353075 73.350773s-32.84112 73.350773-73.353075 73.350773c-40.509652 0-73.350773-32.838818-73.350773-73.350773s32.84112-73.350773 73.350773-73.350773z" fill="#5D7690" p-id="5404"></path><path d="M1061.681737 328.747423m-80.190274 0a80.190274 80.190274 0 1 0 160.380548 0 80.190274 80.190274 0 1 0-160.380548 0Z" fill="#B9D2E2" p-id="5405"></path><path d="M1061.681737 436.981955c59.777702 0 108.234532-48.45683 108.234532-108.234532s-48.45683-108.234532-108.234532-108.234532-108.234532 48.45683-108.234532 108.234532 48.459133 108.234532 108.234532 108.234532z m0-181.583002c40.509652 0 73.353076 32.838818 73.353076 73.350773s-32.843423 73.350773-73.353076 73.350772-73.350773-32.838818-73.350772-73.350772 32.843423-73.350773 73.350772-73.350773z" fill="#5D7690" p-id="5406"></path></svg>