<?xml version="1.0" standalone="no"?><!DOCTYPE svg PUBLIC "-//W3C//DTD SVG 1.1//EN" "http://www.w3.org/Graphics/SVG/1.1/DTD/svg11.dtd"><svg t="1645974096250" class="icon" viewBox="0 0 1024 1024" version="1.1" xmlns="http://www.w3.org/2000/svg" p-id="33041" xmlns:xlink="http://www.w3.org/1999/xlink" width="32" height="32"><defs><style type="text/css"></style></defs><path d="M511.616 794.538667L234.666667 932.864a43.477333 43.477333 0 0 1-58.709334-17.066667A46.506667 46.506667 0 0 1 170.666667 894.592v-309.674667c0 30.72 17.322667 49.664 62.848 70.869334z" fill="#d81e06" opacity=".4" p-id="33042"></path><path d="M809.813333 938.666667a43.178667 43.178667 0 0 1-21.589333-5.802667l-276.608-138.368-278.101333-138.709333C187.733333 634.453333 170.666667 615.210667 170.666667 584.917333V247.168a141.738667 141.738667 0 0 1 61.226666-124.544A262.186667 262.186667 0 0 1 379.733333 85.333333h263.424a264.021333 264.021333 0 0 1 147.882667 37.290667A143.36 143.36 0 0 1 853.333333 247.168v647.424a45.44 45.44 0 0 1-5.248 20.864 43.648 43.648 0 0 1-26.282666 21.333333 43.178667 43.178667 0 0 1-11.989334 1.877334zM350.933333 343.082667a33.749333 33.749333 0 0 0 0 67.456h321.024a33.749333 33.749333 0 0 0 0-67.456z" fill="#d81e06" p-id="33043"></path></svg>