<?xml version="1.0" standalone="no"?><!DOCTYPE svg PUBLIC "-//W3C//DTD SVG 1.1//EN" "http://www.w3.org/Graphics/SVG/1.1/DTD/svg11.dtd"><svg t="1646317940815" class="icon" viewBox="0 0 1024 1024" version="1.1" xmlns="http://www.w3.org/2000/svg" p-id="13855" xmlns:xlink="http://www.w3.org/1999/xlink" width="32" height="32"><defs><style type="text/css"></style></defs><path d="M1024 512c0 282.77-229.23 512-512 512S0 794.77 0 512 229.23 0 512 0s512 229.23 512 512z" fill="#FF4747" p-id="13856"></path><path d="M528.816 437.46c-8.451 8.451-22.098 8.507-30.604 0L337.883 277.131c-8.451-8.451-22.271-8.333-30.632 0.028L277.16 307.25c-8.467 8.467-8.535 22.126-0.028 30.632l160.329 160.329c8.451 8.451 8.507 22.098 0 30.604L277.132 689.144c-8.451 8.451-8.333 22.271 0.028 30.632l30.091 30.091c8.467 8.467 22.126 8.535 30.632 0.028l160.329-160.329c8.451-8.451 22.098-8.507 30.604 0l160.329 160.329c8.451 8.451 22.271 8.333 30.632-0.028l30.091-30.091c8.467-8.467 8.535-22.126 0.028-30.632L589.567 528.815c-8.451-8.451-8.507-22.098 0-30.604l160.329-160.329c8.451-8.451 8.333-22.271-0.028-30.632l-30.091-30.091c-8.467-8.467-22.126-8.535-30.632-0.028L528.816 437.46z" fill="#FFFFFF" p-id="13857"></path></svg>