<?xml version="1.0" standalone="no"?><!DOCTYPE svg PUBLIC "-//W3C//DTD SVG 1.1//EN" "http://www.w3.org/Graphics/SVG/1.1/DTD/svg11.dtd"><svg t="1645972731186" class="icon" viewBox="0 0 1024 1024" version="1.1" xmlns="http://www.w3.org/2000/svg" p-id="1419" xmlns:xlink="http://www.w3.org/1999/xlink" width="32" height="32"><defs><style type="text/css"></style></defs><path d="M1024 960a64 64 0 0 1-64 64H64a64 64 0 0 1-64-64V320a64 64 0 0 1 64-64h896a64 64 0 0 1 64 64v640z" fill="#EDD87E" p-id="1420"></path><path d="M960 128H512V64a64 64 0 0 0-64-64H64a64 64 0 0 0-64 64v256a64 64 0 0 1 64-64h896a64 64 0 0 1 64 64V192a64 64 0 0 0-64-64z" fill="#434854" p-id="1421"></path><path d="M960 224H64a64 64 0 0 0-64 64v32a64 64 0 0 1 64-64h896a64 64 0 0 1 64 64V288a64 64 0 0 0-64-64z" fill="" p-id="1422"></path><path d="M128 192h768v64H128z" fill="#EAEAEA" p-id="1423"></path><path d="M640 672h128v192h-128zM448 544h128v320h-128zM256 416h128v448H256z" fill="" p-id="1424"></path></svg>