<?xml version="1.0" standalone="no"?><!DOCTYPE svg PUBLIC "-//W3C//DTD SVG 1.1//EN" "http://www.w3.org/Graphics/SVG/1.1/DTD/svg11.dtd"><svg t="1646316001983" class="icon" viewBox="0 0 1024 1024" version="1.1" xmlns="http://www.w3.org/2000/svg" p-id="19858" xmlns:xlink="http://www.w3.org/1999/xlink" width="32" height="32"><defs><style type="text/css"></style></defs><path d="M522.1376 512m-152.8832 0a152.8832 152.8832 0 1 0 305.7664 0 152.8832 152.8832 0 1 0-305.7664 0Z" fill="#ffa115" p-id="19859"></path><path d="M512.256 888.7808c-129.5872 0-241.7152-45.312-333.312-134.6048-74.3424-72.4992-115.6608-156.4672-133.6832-200.0896-11.4176-27.648-10.9056-59.0848 1.4336-86.272 18.9952-41.7792 53.1968-104.0896 108.3904-163.6352 11.52-12.4416 30.976-13.1584 43.4176-1.6384a30.68928 30.68928 0 0 1 1.6384 43.4176c-52.224 56.32-83.5072 116.4288-97.4848 147.2512a47.30368 47.30368 0 0 0-0.6144 37.4272c36.864 89.1904 150.6304 296.704 410.1632 296.704 60.416 0 117.0432-11.4176 168.3456-33.9456a30.7712 30.7712 0 0 1 40.4992 15.7696 30.7712 30.7712 0 0 1-15.7696 40.4992c-59.136 26.0096-124.0576 39.1168-193.024 39.1168zM857.4464 727.0912a30.7456 30.7456 0 0 1-23.4496-50.5856c47.7184-56.4224 75.776-115.3024 88.2176-145.3568 5.0688-12.1856 4.7616-26.0096-0.8704-37.888-40.2432-85.504-160.9728-284.416-411.6992-284.416-53.5552 0-104.448 9.216-151.296 27.392-15.8208 6.144-33.6384-1.6896-39.7312-17.5104-6.144-15.8208 1.6896-33.6384 17.5104-39.7312 53.9648-20.9408 112.3328-31.5392 173.5168-31.5392 124.8768 0 235.1616 43.1104 327.8336 128.1024 75.52 69.2736 119.808 149.76 139.4688 191.5904 12.9536 27.5456 13.7216 59.4432 2.048 87.6032-16.896 40.7552-47.616 101.8368-98.0992 161.4848a30.78656 30.78656 0 0 1-23.4496 10.8544zM857.4464 868.864c-7.68 0-15.36-2.8672-21.3504-8.6016L165.5296 213.1968a30.72 30.72 0 0 1-0.768-43.4176 30.72 30.72 0 0 1 43.4176-0.768l670.6176 647.0656a30.72 30.72 0 0 1 0.768 43.4176 30.6688 30.6688 0 0 1-22.1184 9.3696z" fill="#474A54" p-id="19860"></path><path d="M672.9728 568.1664c-1.6896 0-3.3792-0.1536-5.12-0.4096a30.76096 30.76096 0 0 1-25.2416-35.3792c1.1264-6.7072 1.6896-13.568 1.6896-20.3776 0-67.3792-54.8352-122.1632-122.1632-122.1632-7.5776 0-15.1552 0.7168-22.528 2.048a30.72 30.72 0 0 1-35.84-24.576 30.72 30.72 0 0 1 24.576-35.84c11.0592-2.048 22.4256-3.1232 33.792-3.1232 101.2224 0 183.6032 82.3808 183.6032 183.6032 0 10.24-0.8704 20.48-2.5088 30.5152a30.72512 30.72512 0 0 1-30.2592 25.7024zM522.1376 695.6032c-101.2224 0-183.6032-82.3808-183.6032-183.6032 0-9.5232 0.7168-19.0976 2.2016-28.416 2.6112-16.7424 18.3296-28.2624 35.072-25.6512 16.7424 2.6112 28.2624 18.3296 25.6512 35.072-0.9728 6.2464-1.4848 12.6464-1.4848 18.9952 0 67.3792 54.784 122.1632 122.1632 122.1632 7.8336 0 15.7184-0.768 23.3472-2.2016 16.64-3.2256 32.768 7.68 35.9936 24.32 3.2256 16.64-7.68 32.768-24.32 35.9936-11.52 2.2016-23.296 3.328-35.0208 3.328z" fill="#474A54" p-id="19861"></path></svg>