<?xml version="1.0" standalone="no"?><!DOCTYPE svg PUBLIC "-//W3C//DTD SVG 1.1//EN" "http://www.w3.org/Graphics/SVG/1.1/DTD/svg11.dtd"><svg t="1646318098536" class="icon" viewBox="0 0 1024 1024" version="1.1" xmlns="http://www.w3.org/2000/svg" p-id="17184" xmlns:xlink="http://www.w3.org/1999/xlink" width="32" height="32"><defs><style type="text/css"></style></defs><path d="M546.133333 622.933333H261.12c-13.653333 0-23.893333-10.24-23.893333-23.893333 0-13.653333 10.24-23.893333 23.893333-23.893333H546.133333c13.653333 0 23.893333 10.24 23.893334 23.893333 0 13.653333-10.24 23.893333-23.893334 23.893333zM390.826667 491.52h-129.706667c-13.653333 0-23.893333-10.24-23.893333-23.893333 0-13.653333 10.24-23.893333 23.893333-23.893334h129.706667c13.653333 0 23.893333 10.24 23.893333 23.893334 0 13.653333-10.24 23.893333-23.893333 23.893333z" p-id="17185"></path><path d="M172.373333 213.333333c5.12 20.48 5.12 42.666667-1.706666 61.44 10.24 23.893333 10.24 54.613333 1.706666 78.506667 5.12 18.773333 3.413333 39.253333-1.706666 56.32 0 5.12 1.706667 8.533333 1.706666 13.653333 3.413333 17.066667 3.413333 32.426667 0 47.786667 5.12 11.946667 8.533333 25.6 8.533334 40.96 0 52.906667 5.12 104.106667 3.413333 157.013333-1.706667 34.133333-6.826667 68.266667-11.946667 100.693334 3.413333 13.653333 5.12 29.013333 1.706667 44.373333 8.533333 15.36 11.946667 34.133333 8.533333 54.613333 8.533333 8.533333 13.653333 17.066667 18.773334 27.306667 3.413333 3.413333 5.12 8.533333 6.826666 11.946667h10.24c17.066667 0 30.72 3.413333 42.666667 10.24 5.12 0 8.533333-1.706667 13.653333-1.706667 15.36 0 29.013333 3.413333 40.96 8.533333 6.826667-1.706667 11.946667-1.706667 18.773334-1.706666 6.826667 0 11.946667 0 17.066666 1.706666 11.946667-5.12 25.6-10.24 42.666667-10.24 22.186667 0 40.96 6.826667 54.613333 17.066667 6.826667-1.706667 13.653333-1.706667 22.186667-1.706667 6.826667 0 13.653333 0 18.773333 1.706667 13.653333-6.826667 29.013333-11.946667 47.786667-11.946667 15.36 0 27.306667 3.413333 39.253333 6.826667 5.12-1.706667 10.24-1.706667 15.36-3.413333 10.24-3.413333 20.48-5.12 32.426667-5.12s23.893333 1.706667 34.133333 5.12c11.946667-6.826667 27.306667-10.24 42.666667-10.24 10.24 0 18.773333 1.706667 27.306667 3.413333 8.533333-37.546667 11.946667-76.8 11.946666-117.76-1.706667-314.026667-252.586667-571.733333-568.32-585.386667z" fill="#F4F4F4" p-id="17186"></path><path d="M175.786667 375.466667c0 11.946667-1.706667 25.6-5.12 35.84 0 5.12 1.706667 8.533333 1.706666 13.653333 3.413333 17.066667 3.413333 32.426667 0 47.786667 5.12 11.946667 8.533333 25.6 8.533334 40.96 0 52.906667 5.12 104.106667 3.413333 157.013333-1.706667 34.133333-6.826667 68.266667-11.946667 100.693333 3.413333 13.653333 5.12 29.013333 1.706667 44.373334 8.533333 15.36 11.946667 34.133333 8.533333 54.613333 8.533333 8.533333 13.653333 17.066667 18.773334 27.306667 3.413333 3.413333 5.12 8.533333 6.826666 11.946666h10.24c17.066667 0 30.72 3.413333 42.666667 10.24 5.12 0 8.533333-1.706667 13.653333-1.706666 15.36 0 29.013333 3.413333 40.96 8.533333 6.826667-1.706667 11.946667-1.706667 18.773334-1.706667 6.826667 0 11.946667 0 17.066666 1.706667 11.946667-5.12 25.6-10.24 42.666667-10.24 22.186667 0 40.96 6.826667 54.613333 17.066667 6.826667-1.706667 13.653333-1.706667 22.186667-1.706667 6.826667 0 13.653333 0 18.773333 1.706667 13.653333-6.826667 29.013333-11.946667 47.786667-11.946667 8.533333 0 17.066667 1.706667 23.893333 3.413333 11.946667-37.546667 17.066667-78.506667 17.066667-121.173333 0-228.693333-177.493333-414.72-402.773333-428.373333z" fill="#DDDDDD" p-id="17187"></path><path d="M740.693333 274.773333H298.666667c-13.653333 0-23.893333-10.24-23.893334-23.893333 0-13.653333 10.24-23.893333 23.893334-23.893333h442.026666c13.653333 0 23.893333 10.24 23.893334 23.893333 0 11.946667-10.24 23.893333-23.893334 23.893333zM583.68 530.773333H298.666667c-13.653333 0-23.893333-10.24-23.893334-23.893333 0-13.653333 10.24-23.893333 23.893334-23.893333h285.013333c13.653333 0 23.893333 10.24 23.893333 23.893333 0 13.653333-11.946667 23.893333-23.893333 23.893333zM428.373333 399.36h-129.706666c-13.653333 0-23.893333-10.24-23.893334-23.893333 0-13.653333 10.24-23.893333 23.893334-23.893334h129.706666c13.653333 0 23.893333 10.24 23.893334 23.893334 0 13.653333-10.24 23.893333-23.893334 23.893333z" fill="#484949" p-id="17188"></path><path d="M827.733333 841.386667c0 29.013333-23.893333 54.613333-52.906666 54.613333H256c-29.013333 0-59.733333-25.6-59.733333-54.613333V197.973333c0-29.013333 30.72-52.906667 59.733333-52.906666h520.533333c29.013333 0 52.906667 25.6 52.906667 52.906666v390.826667h51.2V197.973333c0-59.733333-44.373333-104.106667-104.106667-104.106666H256c-59.733333 0-110.933333 46.08-110.933333 104.106666v643.413334c0 59.733333 51.2 105.813333 110.933333 105.813333h520.533333c59.733333 0 104.106667-46.08 104.106667-105.813333v-98.986667h-51.2v98.986667z" fill="#484949" p-id="17189"></path></svg>