<?xml version="1.0" standalone="no"?><!DOCTYPE svg PUBLIC "-//W3C//DTD SVG 1.1//EN" "http://www.w3.org/Graphics/SVG/1.1/DTD/svg11.dtd"><svg t="1646234066615" class="icon" viewBox="0 0 1024 1024" version="1.1" xmlns="http://www.w3.org/2000/svg" p-id="32033" xmlns:xlink="http://www.w3.org/1999/xlink" width="32" height="32"><defs><style type="text/css"></style></defs><path d="M853.333333 810.666667a42.666667 42.666667 0 0 1 4.992 85.034666L853.333333 896H170.666667a42.666667 42.666667 0 0 1-4.992-85.034667L170.666667 810.666667h682.666666zM853.333333 640a42.666667 42.666667 0 0 1 4.992 85.034667L853.333333 725.333333h-106.666666a42.666667 42.666667 0 0 1-4.992-85.034666L746.666667 640H853.333333zM853.333333 469.333333a42.666667 42.666667 0 0 1 4.992 85.034667L853.333333 554.666667h-160a42.666667 42.666667 0 0 1-4.992-85.034667L693.333333 469.333333H853.333333zM853.333333 298.666667a42.666667 42.666667 0 0 1 4.992 85.034666L853.333333 384h-213.333333a42.666667 42.666667 0 0 1-4.992-85.034667L640 298.666667h213.333333zM288 512h192c17.664 0 32-19.114667 32-42.666667s-14.336-42.666667-32-42.666666h-192c-17.664 0-32 19.114667-32 42.666666s14.336 42.666667 32 42.666667z" p-id="32034"></path><path d="M387.370667 227.242667l164.906666 471.125333a42.666667 42.666667 0 1 0 80.938667-27.008L462.208 181.930667a78.848 78.848 0 0 0-149.632-0.085334L133.248 671.274667a42.666667 42.666667 0 1 0 80.896 27.093333L387.413333 227.242667z" p-id="32035"></path></svg>