<?xml version="1.0" standalone="no"?><!DOCTYPE svg PUBLIC "-//W3C//DTD SVG 1.1//EN" "http://www.w3.org/Graphics/SVG/1.1/DTD/svg11.dtd"><svg t="1646225910902" class="icon" viewBox="0 0 1024 1024" version="1.1" xmlns="http://www.w3.org/2000/svg" p-id="4333" xmlns:xlink="http://www.w3.org/1999/xlink" width="32" height="32"><defs><style type="text/css"></style></defs><path d="M1016.183467 429.397333l-477.866667-307.2A17.066667 17.066667 0 0 0 512 136.533333v188.0064C169.506133 335.086933 4.164267 662.9376 0.034133 886.237867L0 887.466667a17.066667 17.066667 0 0 0 16.930133 17.066666H17.066667a17.1008 17.1008 0 0 0 17.066666-16.7936l0.034134-1.058133C36.352 832.955733 259.720533 607.573333 512 597.674667V785.066667a17.066667 17.066667 0 0 0 26.999467 13.892266l477.866666-341.333333a17.169067 17.169067 0 0 0-0.682666-28.228267zM546.133333 751.889067V580.266667a17.066667 17.066667 0 0 0-17.066666-17.066667c-197.666133 0-400.520533 139.127467-486.468267 242.517333C81.169067 597.162667 249.514667 358.4 529.066667 358.4a17.066667 17.066667 0 0 0 17.066666-17.066667V167.799467l430.3872 276.6848L546.133333 751.889067z" fill="" p-id="4334"></path></svg>