<?xml version="1.0" standalone="no"?><!DOCTYPE svg PUBLIC "-//W3C//DTD SVG 1.1//EN" "http://www.w3.org/Graphics/SVG/1.1/DTD/svg11.dtd"><svg t="1645969588174" class="icon" viewBox="0 0 1024 1024" version="1.1" xmlns="http://www.w3.org/2000/svg" p-id="4449" xmlns:xlink="http://www.w3.org/1999/xlink" width="32" height="32"><defs><style type="text/css"></style></defs><path d="M165.840081 127.921872h608.774771l121.254934 121.254934v608.774771c0 20.834181-17.084028 37.91821-37.918209 37.918209H165.840081c-20.834181 0-37.91821-17.084028-37.918209-37.918209V165.840081c0-20.834181 17.084028-37.91821 37.918209-37.918209z" fill="#01579B" p-id="4450"></path><path d="M284.803255 127.921872h454.39349V318.76297c0 25.626043-20.834181 46.668566-46.668566 46.668566H331.471821c-25.626043 0-46.668566-20.834181-46.668566-46.668566V127.921872zM743.155239 896.078128H280.844761V654.818311c0-27.917803 22.709257-50.62706 50.62706-50.62706h361.2647c27.917803 0 50.62706 22.709257 50.62706 50.62706l-0.208342 241.259817z" fill="#0277BD" p-id="4451"></path><path d="M299.803866 127.921872h424.392268V318.76297c0 17.29237-14.167243 31.667955-31.667955 31.667956H331.471821c-17.29237 0-31.667955-14.167243-31.667955-31.667956V127.921872zM299.803866 896.078128h424.392268V654.818311c0-17.29237-14.167243-31.667955-31.667955-31.667955H331.471821c-17.29237 0-31.667955 14.167243-31.667955 31.667955v241.259817z" fill="#EEEEEE" p-id="4452"></path><path d="M572.731638 127.921872h93.128789v181.882401h-93.128789z" fill="#424242" p-id="4453"></path><path d="M360.431333 724.612818h303.137334v19.167446H360.431333zM360.431333 808.991251h303.137334v19.167447H360.431333z" fill="#757575" p-id="4454"></path></svg>