<?xml version="1.0" standalone="no"?><!DOCTYPE svg PUBLIC "-//W3C//DTD SVG 1.1//EN" "http://www.w3.org/Graphics/SVG/1.1/DTD/svg11.dtd"><svg t="1645974009168" class="icon" viewBox="0 0 1364 1024" version="1.1" xmlns="http://www.w3.org/2000/svg" p-id="31936" xmlns:xlink="http://www.w3.org/1999/xlink" width="42.625" height="32"><defs><style type="text/css"></style></defs><path d="M66.56 317.44h1228.8v604.16H66.56z" fill="#D0D7DE" p-id="31937"></path><path d="M512 0h398.336v170.496H512V0zM1251.328 0h-284.672v170.496h398.336V113.664C1365.504 50.688 1314.304 0 1251.328 0z" fill="#EDA914" p-id="31938"></path><path d="M455.168 0H113.664C50.688 0 0 39.424 0 88.064v822.272C0 973.312 50.688 1024 113.664 1024h1137.664c62.976 0 113.664-50.688 113.664-113.664V227.328H455.168V0zM512 853.504H113.664v-170.496H512v170.496z m739.328 0H625.664v-170.496h625.664v170.496z m-397.824-455.168h398.336v170.496h-398.336V398.336z m-114.176 0v170.496H113.664V398.336h625.664z" fill="#16385A" p-id="31939"></path></svg>