<?xml version="1.0" standalone="no"?><!DOCTYPE svg PUBLIC "-//W3C//DTD SVG 1.1//EN" "http://www.w3.org/Graphics/SVG/1.1/DTD/svg11.dtd"><svg t="1646225921444" class="icon" viewBox="0 0 1024 1024" version="1.1" xmlns="http://www.w3.org/2000/svg" p-id="4483" xmlns:xlink="http://www.w3.org/1999/xlink" width="32" height="32"><defs><style type="text/css"></style></defs><path d="M1023.965867 886.237867C1019.835733 662.9376 854.493867 335.086933 512 324.539733V136.533333a17.066667 17.066667 0 1 0-26.3168-14.370133l-477.866667 307.2a17.032533 17.032533 0 0 0-0.682666 28.228267l477.866666 341.333333A17.134933 17.134933 0 0 0 512 785.066667v-187.426134c252.279467 9.898667 475.648 235.281067 477.832533 289.006934l0.034134 1.092266a17.1008 17.1008 0 0 0 17.066666 16.7936h0.136534A17.066667 17.066667 0 0 0 1024 887.466667l-0.034133-1.2288zM494.933333 563.2a17.066667 17.066667 0 0 0-17.066666 17.066667v171.6224L47.479467 444.484267 477.866667 167.799467V341.333333a17.066667 17.066667 0 0 0 17.066666 17.066667c279.552 0 447.8976 238.762667 486.468267 447.317333C895.453867 702.327467 692.599467 563.2 494.933333 563.2z" fill="" p-id="4484"></path></svg>