<?xml version="1.0" standalone="no"?><!DOCTYPE svg PUBLIC "-//W3C//DTD SVG 1.1//EN" "http://www.w3.org/Graphics/SVG/1.1/DTD/svg11.dtd"><svg t="1646316286074" class="icon" viewBox="0 0 1024 1024" version="1.1" xmlns="http://www.w3.org/2000/svg" p-id="23102" xmlns:xlink="http://www.w3.org/1999/xlink" width="32" height="32"><defs><style type="text/css"></style></defs><path d="M680.77 566.83H571.11c-20.19 0-36.55 16.36-36.55 36.55s16.36 36.55 36.55 36.55h18.28v91.38c0 20.19 16.36 36.55 36.55 36.55s36.55-16.36 36.55-36.55v-91.38h18.28c20.19 0 36.55-16.36 36.55-36.55s-16.37-36.55-36.55-36.55z" fill="#4AFFFE" p-id="23103"></path><path d="M869.62 402.35H465.07v-91.38c0-110.85-90.18-201.03-201.03-201.03S63 200.12 63 310.97c0 10.1 8.18 18.28 18.28 18.28s18.28-8.17 18.28-18.28c0-90.7 73.79-164.48 164.48-164.48s164.48 73.78 164.48 164.48v91.38h-46.25c-50.38 0-91.38 41-91.38 91.38v328.96c0 50.38 41 91.38 91.38 91.38h487.36c50.38 0 91.38-41 91.38-91.38V493.72c-0.01-50.38-41.01-91.37-91.39-91.37z m54.83 420.34c0 30.23-24.59 54.83-54.83 54.83H382.26c-30.23 0-54.83-24.59-54.83-54.83V493.72c0-30.23 24.59-54.83 54.83-54.83h487.36c30.23 0 54.83 24.59 54.83 54.83v328.97z" fill="#1D2088" p-id="23104"></path><path d="M680.77 548.55H571.11c-30.23 0-54.83 24.59-54.83 54.83s24.59 54.83 54.83 54.83v73.1c0 30.23 24.59 54.83 54.83 54.83s54.83-24.59 54.83-54.83v-73.1c30.23 0 54.83-24.59 54.83-54.83s-24.6-54.83-54.83-54.83z m0 73.1h-18.28c-10.09 0-18.28 8.17-18.28 18.28v91.38c0 10.08-8.2 18.28-18.28 18.28-10.07 0-18.28-8.19-18.28-18.28v-91.38c0-10.1-8.18-18.28-18.28-18.28h-18.28c-10.07 0-18.28-8.19-18.28-18.28s8.2-18.28 18.28-18.28h109.65c10.07 0 18.28 8.19 18.28 18.28s-8.18 18.28-18.25 18.28z" fill="#1D2088" p-id="23105"></path></svg>