<?xml version="1.0" standalone="no"?><!DOCTYPE svg PUBLIC "-//W3C//DTD SVG 1.1//EN" "http://www.w3.org/Graphics/SVG/1.1/DTD/svg11.dtd"><svg t="1699249369805" class="icon" viewBox="0 0 1024 1024" version="1.1" xmlns="http://www.w3.org/2000/svg" p-id="1511" xmlns:xlink="http://www.w3.org/1999/xlink" width="200" height="200"><path d="M168.7552 436.6848c-28.7744-23.552-52.224-50.7904-67.9936-81.152l54.4768-28.3648c11.264 21.6576 28.8768 42.6496 52.4288 61.952C274.2272 443.8016 384.512 481.28 512 481.28c127.488 0 237.7216-37.5296 304.3328-92.16 23.552-19.3024 41.1136-40.2944 52.4288-61.952l54.4768 28.3648c-15.7696 30.3616-39.2704 57.6-67.9936 81.152C775.168 502.272 649.9328 542.72 512 542.72c-137.984 0-263.168-40.3968-343.2448-106.0352" fill="#496189" p-id="1512"></path><path d="M632.6784 684.8l-44.1856-164.864 59.392-15.872 44.1344 164.864-59.3408 15.872zM895.8464 597.9648L775.168 477.2864l43.4176-43.4688 120.6784 120.6784-43.4176 43.4688zM249.088 477.2864l-120.6784 120.6784-43.4688-43.4688 120.6784-120.6784 43.4688 43.4688zM434.944 519.936l-44.1344 164.864-59.392-15.872 44.1856-164.864 59.392 15.872z" fill="#496189" p-id="1513"></path></svg>