<?xml version="1.0" standalone="no"?><!DOCTYPE svg PUBLIC "-//W3C//DTD SVG 1.1//EN" "http://www.w3.org/Graphics/SVG/1.1/DTD/svg11.dtd"><svg t="1646228596339" class="icon" viewBox="0 0 1024 1024" version="1.1" xmlns="http://www.w3.org/2000/svg" p-id="4933" xmlns:xlink="http://www.w3.org/1999/xlink" width="32" height="32"><defs><style type="text/css"></style></defs><path d="M529.066667 631.466667H17.066667c-10.24 0-17.066667-6.826667-17.066667-17.066667V102.4c0-10.24 6.826667-17.066667 17.066667-17.066667h512c10.24 0 17.066667 6.826667 17.066666 17.066667v512c0 10.24-6.826667 17.066667-17.066666 17.066667zM34.133333 597.333333h477.866667v-477.866666H34.133333v477.866666z" fill="" p-id="4934"></path><path d="M460.8 563.2h-375.466667c-6.826667 0-10.24-3.413333-13.653333-6.826667-3.413333-3.413333-3.413333-10.24-3.413333-17.066666l102.4-273.066667c3.413333-6.826667 6.826667-10.24 13.653333-10.24s13.653333 3.413333 17.066667 10.24l75.093333 150.186667 68.266667-54.613334c3.413333-3.413333 10.24-3.413333 13.653333-3.413333 3.413333 0 10.24 3.413333 10.24 6.826667l102.4 170.666666c3.413333 6.826667 3.413333 10.24 0 17.066667s-3.413333 10.24-10.24 10.24z m-351.573333-34.133333h320.853333l-78.506667-129.706667-71.68 54.613333c-3.413333 3.413333-10.24 3.413333-13.653333 3.413334-3.413333 0-10.24-3.413333-10.24-10.24l-68.266667-136.533334-78.506666 218.453334zM1006.933333 119.466667h-341.333333c-10.24 0-17.066667-6.826667-17.066667-17.066667s6.826667-17.066667 17.066667-17.066667h341.333333c10.24 0 17.066667 6.826667 17.066667 17.066667s-6.826667 17.066667-17.066667 17.066667zM1006.933333 221.866667h-341.333333c-10.24 0-17.066667-6.826667-17.066667-17.066667s6.826667-17.066667 17.066667-17.066667h341.333333c10.24 0 17.066667 6.826667 17.066667 17.066667s-6.826667 17.066667-17.066667 17.066667zM1006.933333 324.266667h-341.333333c-10.24 0-17.066667-6.826667-17.066667-17.066667s6.826667-17.066667 17.066667-17.066667h341.333333c10.24 0 17.066667 6.826667 17.066667 17.066667s-6.826667 17.066667-17.066667 17.066667zM1006.933333 426.666667h-341.333333c-10.24 0-17.066667-6.826667-17.066667-17.066667s6.826667-17.066667 17.066667-17.066667h341.333333c10.24 0 17.066667 6.826667 17.066667 17.066667s-6.826667 17.066667-17.066667 17.066667zM1006.933333 529.066667h-341.333333c-10.24 0-17.066667-6.826667-17.066667-17.066667s6.826667-17.066667 17.066667-17.066667h341.333333c10.24 0 17.066667 6.826667 17.066667 17.066667s-6.826667 17.066667-17.066667 17.066667zM1006.933333 631.466667h-341.333333c-10.24 0-17.066667-6.826667-17.066667-17.066667s6.826667-17.066667 17.066667-17.066667h341.333333c10.24 0 17.066667 6.826667 17.066667 17.066667s-6.826667 17.066667-17.066667 17.066667zM1006.933333 733.866667H17.066667c-10.24 0-17.066667-6.826667-17.066667-17.066667s6.826667-17.066667 17.066667-17.066667h989.866666c10.24 0 17.066667 6.826667 17.066667 17.066667s-6.826667 17.066667-17.066667 17.066667zM1006.933333 836.266667H17.066667c-10.24 0-17.066667-6.826667-17.066667-17.066667s6.826667-17.066667 17.066667-17.066667h989.866666c10.24 0 17.066667 6.826667 17.066667 17.066667s-6.826667 17.066667-17.066667 17.066667zM1006.933333 938.666667H17.066667c-10.24 0-17.066667-6.826667-17.066667-17.066667s6.826667-17.066667 17.066667-17.066667h989.866666c10.24 0 17.066667 6.826667 17.066667 17.066667s-6.826667 17.066667-17.066667 17.066667zM358.4 324.266667C310.613333 324.266667 273.066667 286.72 273.066667 238.933333s37.546667-85.333333 85.333333-85.333333S443.733333 191.146667 443.733333 238.933333s-37.546667 85.333333-85.333333 85.333334z m0-136.533334C331.093333 187.733333 307.2 211.626667 307.2 238.933333s23.893333 51.2 51.2 51.2S409.6 266.24 409.6 238.933333s-23.893333-51.2-51.2-51.2z" fill="" p-id="4935"></path></svg>