<?xml version="1.0" standalone="no"?><!DOCTYPE svg PUBLIC "-//W3C//DTD SVG 1.1//EN" "http://www.w3.org/Graphics/SVG/1.1/DTD/svg11.dtd"><svg t="1646231309912" class="icon" viewBox="0 0 1024 1024" version="1.1" xmlns="http://www.w3.org/2000/svg" p-id="7977" xmlns:xlink="http://www.w3.org/1999/xlink" width="32" height="32"><defs><style type="text/css"></style></defs><path d="M17.066667 989.866667s-3.413333 0 0 0c-10.24-3.413333-17.066667-10.24-17.066667-17.066667v-921.6c0-10.24 6.826667-17.066667 17.066667-17.066667h375.466666c6.826667 0 10.24 3.413333 13.653334 6.826667s3.413333 10.24 0 17.066667l-375.466667 921.6c0 6.826667-6.826667 10.24-13.653333 10.24zM34.133333 68.266667v815.786666L368.64 68.266667H34.133333zM750.933333 989.866667h-187.733333c-6.826667 0-13.653333-3.413333-17.066667-10.24L484.693333 819.2H324.266667c-6.826667 0-10.24-3.413333-13.653334-6.826667s-3.413333-10.24-3.413333-17.066666l170.666667-443.733334c3.413333-6.826667 10.24-10.24 17.066666-10.24s13.653333 3.413333 17.066667 10.24l256 614.4c3.413333 6.826667 0 10.24 0 17.066667s-10.24 6.826667-17.066667 6.826667z m-177.493333-34.133334h150.186667l-228.693334-552.96L348.16 785.066667h146.773333c6.826667 0 13.653333 3.413333 17.066667 10.24l61.44 160.426666zM1006.933333 989.866667c-6.826667 0-13.653333-3.413333-17.066666-10.24l-409.6-921.6c-3.413333-6.826667-3.413333-10.24 0-17.066667 6.826667-3.413333 10.24-6.826667 17.066666-6.826667h409.6c10.24 0 17.066667 6.826667 17.066667 17.066667v921.6c0 6.826667-6.826667 13.653333-13.653333 17.066667h-3.413334zM624.64 68.266667L989.866667 890.88V68.266667H624.64z" fill="" p-id="7978"></path></svg>