<?xml version="1.0" standalone="no"?><!DOCTYPE svg PUBLIC "-//W3C//DTD SVG 1.1//EN" "http://www.w3.org/Graphics/SVG/1.1/DTD/svg11.dtd"><svg t="1646229696591" class="icon" viewBox="0 0 1024 1024" version="1.1" xmlns="http://www.w3.org/2000/svg" p-id="6293" xmlns:xlink="http://www.w3.org/1999/xlink" width="32" height="32"><defs><style type="text/css"></style></defs><path d="M392.533333 921.6h-307.2c-10.24 0-17.066667-6.826667-17.066666-17.066667v-614.4c0-3.413333 3.413333-10.24 3.413333-13.653333l273.066667-273.066667c3.413333 0 10.24-3.413333 13.653333-3.413333h409.6c10.24 0 17.066667 6.826667 17.066667 17.066667v477.866666c0 10.24-6.826667 17.066667-17.066667 17.066667s-17.066667-6.826667-17.066667-17.066667V34.133333H365.226667L102.4 296.96V887.466667h290.133333c10.24 0 17.066667 6.826667 17.066667 17.066666s-6.826667 17.066667-17.066667 17.066667z" fill="" p-id="6294"></path><path d="M358.4 307.2h-273.066667c-10.24 0-17.066667-6.826667-17.066666-17.066667s6.826667-17.066667 17.066666-17.066666H341.333333V17.066667c0-10.24 6.826667-17.066667 17.066667-17.066667s17.066667 6.826667 17.066667 17.066667v273.066666c0 10.24-6.826667 17.066667-17.066667 17.066667z" fill="" p-id="6295"></path><path d="M512 1024c-6.826667 0-10.24-3.413333-13.653333-10.24l-85.333334-153.6c-3.413333-3.413333-3.413333-10.24 0-17.066667l153.6-290.133333c3.413333-6.826667 10.24-10.24 13.653334-10.24 6.826667 0 13.653333 3.413333 13.653333 10.24l85.333333 153.6c3.413333 3.413333 3.413333 10.24 0 17.066667l-153.6 290.133333c0 6.826667-6.826667 10.24-13.653333 10.24z m-64.853333-170.666667l64.853333 119.466667 133.12-252.586667-64.853333-122.88-133.12 256zM870.4 1024H614.4c-6.826667 0-10.24-3.413333-13.653333-6.826667s-3.413333-10.24 0-17.066666l68.266666-136.533334c3.413333-6.826667 10.24-10.24 13.653334-10.24h256c6.826667 0 10.24 3.413333 13.653333 6.826667s3.413333 10.24 0 17.066667l-68.266667 136.533333c0 6.826667-6.826667 10.24-13.653333 10.24z m-228.693333-34.133333h218.453333l51.2-102.4h-218.453333l-51.2 102.4zM938.666667 819.2h-136.533334c-6.826667 0-10.24-3.413333-13.653333-10.24l-136.533333-238.933333c-3.413333-6.826667-3.413333-10.24 0-17.066667s10.24-6.826667 13.653333-6.826667h136.533333c6.826667 0 10.24 3.413333 13.653334 10.24l136.533333 238.933334c3.413333 6.826667 3.413333 10.24 0 17.066666-3.413333 3.413333-6.826667 6.826667-13.653333 6.826667z m-126.293334-34.133333h95.573334l-116.053334-204.8h-95.573333l116.053333 204.8z" fill="" p-id="6296"></path></svg>