<?xml version="1.0" standalone="no"?><!DOCTYPE svg PUBLIC "-//W3C//DTD SVG 1.1//EN" "http://www.w3.org/Graphics/SVG/1.1/DTD/svg11.dtd"><svg t="1646229722213" class="icon" viewBox="0 0 1024 1024" version="1.1" xmlns="http://www.w3.org/2000/svg" p-id="7213" xmlns:xlink="http://www.w3.org/1999/xlink" width="32" height="32"><defs><style type="text/css"></style></defs><path d="M529.066667 921.6H17.066667c-10.24 0-17.066667-6.826667-17.066667-17.066667v-614.4c0-3.413333 3.413333-10.24 3.413333-13.653333l273.066667-273.066667c3.413333 0 10.24-3.413333 13.653333-3.413333h443.733334c10.24 0 17.066667 6.826667 17.066666 17.066667v477.866666c0 10.24-6.826667 17.066667-17.066666 17.066667s-17.066667-6.826667-17.066667-17.066667V34.133333H296.96L34.133333 296.96V887.466667h494.933334c10.24 0 17.066667 6.826667 17.066666 17.066666s-6.826667 17.066667-17.066666 17.066667z" fill="" p-id="7214"></path><path d="M290.133333 307.2h-273.066666C6.826667 307.2 0 300.373333 0 290.133333S6.826667 273.066667 17.066667 273.066667H273.066667V17.066667c0-10.24 6.826667-17.066667 17.066666-17.066667s17.066667 6.826667 17.066667 17.066667v273.066666c0 10.24-6.826667 17.066667-17.066667 17.066667z" fill="" p-id="7215"></path><path d="M785.066667 890.88c-58.026667 0-102.4-44.373333-102.4-102.4s44.373333-102.4 102.4-102.4 102.4 44.373333 102.4 102.4-44.373333 102.4-102.4 102.4z m0-170.666667c-37.546667 0-68.266667 30.72-68.266667 68.266667s30.72 68.266667 68.266667 68.266667 68.266667-30.72 68.266666-68.266667-30.72-68.266667-68.266666-68.266667z" fill="" p-id="7216"></path><path d="M832.853333 1024c-6.826667 0-13.653333-3.413333-17.066666-10.24-10.24-23.893333-51.2-23.893333-61.44 0-3.413333 6.826667-10.24 10.24-20.48 10.24-47.786667-10.24-88.746667-34.133333-122.88-68.266667-6.826667-6.826667-6.826667-17.066667 0-23.893333 6.826667-10.24 10.24-27.306667 3.413333-37.546667-6.826667-13.653333-20.48-20.48-37.546667-17.066666-6.826667 0-17.066667-3.413333-20.48-10.24-10.24-27.306667-13.653333-51.2-13.653333-78.506667 0-20.48 3.413333-40.96 6.826667-61.44 0-3.413333 3.413333-6.826667 6.826666-10.24s10.24-3.413333 13.653334 0c13.653333 3.413333 30.72-3.413333 37.546666-17.066667 6.826667-13.653333 3.413333-34.133333-6.826666-44.373333-3.413333-3.413333-6.826667-6.826667-6.826667-10.24s0-10.24 3.413333-13.653333c34.133333-37.546667 75.093333-64.853333 126.293334-75.093334 3.413333 0 10.24 0 13.653333 3.413334 3.413333 3.413333 6.826667 6.826667 6.826667 10.24 3.413333 17.066667 17.066667 30.72 34.133333 30.72s30.72-13.653333 34.133333-30.72c0-3.413333 3.413333-10.24 6.826667-10.24 3.413333-3.413333 10.24-3.413333 13.653333-3.413334 47.786667 10.24 92.16 37.546667 126.293334 75.093334 3.413333 3.413333 3.413333 6.826667 3.413333 13.653333s-3.413333 10.24-6.826667 10.24c-13.653333 10.24-17.066667 27.306667-6.826666 44.373333 6.826667 13.653333 23.893333 20.48 37.546666 17.066667h13.653334c3.413333 3.413333 6.826667 6.826667 6.826666 10.24 6.826667 20.48 6.826667 40.96 6.826667 61.44 0 27.306667-3.413333 54.613333-13.653333 78.506667-3.413333 6.826667-10.24 13.653333-20.48 10.24-13.653333-3.413333-27.306667 3.413333-37.546667 17.066666-6.826667 10.24-6.826667 27.306667 3.413333 37.546667 6.826667 6.826667 3.413333 17.066667 0 23.893333-34.133333 34.133333-75.093333 58.026667-122.88 68.266667h10.24zM785.066667 959.146667c20.48 0 40.96 10.24 54.613333 27.306666 30.72-6.826667 58.026667-23.893333 81.92-44.373333-10.24-20.48-6.826667-44.373333 3.413333-61.44 10.24-20.48 34.133333-34.133333 58.026667-34.133333 6.826667-17.066667 6.826667-37.546667 6.826667-54.613334 0-13.653333 0-23.893333-3.413334-37.546666-23.893333 0-47.786667-13.653333-61.44-34.133334-13.653333-23.893333-10.24-51.2 3.413334-71.68-23.893333-23.893333-51.2-40.96-81.92-47.786666-10.24 23.893333-34.133333 40.96-61.44 40.96s-51.2-17.066667-61.44-40.96c-30.72 10.24-58.026667 27.306667-81.92 47.786666 13.653333 20.48 17.066667 51.2 3.413333 71.68-13.653333 20.48-34.133333 34.133333-61.44 34.133334-3.413333 10.24-3.413333 23.893333-3.413333 34.133333 0 17.066667 3.413333 37.546667 6.826666 54.613333 23.893333 0 44.373333 13.653333 58.026667 34.133334 10.24 20.48 13.653333 40.96 3.413333 61.44 23.893333 20.48 51.2 37.546667 81.92 44.373333 13.653333-13.653333 34.133333-23.893333 54.613334-23.893333z" fill="" p-id="7217"></path></svg>