<?xml version="1.0" standalone="no"?><!DOCTYPE svg PUBLIC "-//W3C//DTD SVG 1.1//EN" "http://www.w3.org/Graphics/SVG/1.1/DTD/svg11.dtd"><svg t="1645972785504" class="icon" viewBox="0 0 1024 1024" version="1.1" xmlns="http://www.w3.org/2000/svg" p-id="1882" xmlns:xlink="http://www.w3.org/1999/xlink" width="32" height="32"><defs><style type="text/css"></style></defs><path d="M1024 960a64 64 0 0 1-64 64H64a64 64 0 0 1-64-64V320a64 64 0 0 1 64-64h896a64 64 0 0 1 64 64v640z" fill="#EDD87E" p-id="1883"></path><path d="M960 128H512V64a64 64 0 0 0-64-64H64a64 64 0 0 0-64 64v256a64 64 0 0 1 64-64h896a64 64 0 0 1 64 64V192a64 64 0 0 0-64-64z" fill="#434854" p-id="1884"></path><path d="M960 224H64a64 64 0 0 0-64 64v32a64 64 0 0 1 64-64h896a64 64 0 0 1 64 64V288a64 64 0 0 0-64-64z" fill="" p-id="1885"></path><path d="M128 192h768v64H128z" fill="#EAEAEA" p-id="1886"></path><path d="M721.984 597.952L672 588.864a170.912 170.912 0 0 0-10.816-25.92l28.928-41.824c6.208-9.6 5.472-14.336 0-19.808l-39.552-39.616c-5.504-5.44-10.88-5.856-19.808 0.032l-41.856 28.96a166.08 166.08 0 0 0-25.888-10.816l-9.088-49.984c-2.4-11.168-6.24-14.016-14.016-14.016l-56-0.032c-7.744 0.032-11.808 3.52-14.016 14.016l-9.088 49.984a166.08 166.08 0 0 0-25.888 10.816l-41.856-28.96c-9.6-6.176-14.336-5.472-19.808 0l-39.584 39.584c-5.472 5.472-5.888 10.816 0 19.776l28.96 41.888a165.696 165.696 0 0 0-10.816 25.856l-49.984 9.088c-11.168 2.4-14.016 6.24-14.016 14.016v56c0 7.744 3.488 11.808 14.016 14.016l49.984 9.12c2.88 8.96 6.528 17.6 10.816 25.888l-28.928 41.824c-6.208 9.568-5.472 14.336 0 19.808l39.52 39.616c5.504 5.44 10.88 5.856 19.84-0.032l41.824-28.96a166.4 166.4 0 0 0 25.92 10.816l9.088 49.984c2.368 11.168 6.24 14.016 14.016 14.016h56c7.744 0 11.84-3.52 14.016-14.016L563.008 800a166.08 166.08 0 0 0 25.888-10.816l41.856 28.96c9.6 6.176 14.304 5.472 19.808 0l39.616-39.552c5.44-5.504 5.856-10.88-0.032-19.808l-28.96-41.856a166.08 166.08 0 0 0 10.816-25.888l49.984-9.088c11.168-2.4 14.016-6.272 14.016-14.016v-55.968c-0.032-7.744-3.552-11.84-14.016-14.016zM511.904 736a96.032 96.032 0 0 1 0-192 96.032 96.032 0 0 1 0 192z" fill="" p-id="1887"></path></svg>