<?xml version="1.0" standalone="no"?><!DOCTYPE svg PUBLIC "-//W3C//DTD SVG 1.1//EN" "http://www.w3.org/Graphics/SVG/1.1/DTD/svg11.dtd"><svg t="1646228657041" class="icon" viewBox="0 0 1025 1024" version="1.1" xmlns="http://www.w3.org/2000/svg" p-id="5836" xmlns:xlink="http://www.w3.org/1999/xlink" width="32.03125" height="32"><defs><style type="text/css"></style></defs><path d="M1008.64 273.066667h-648.533333c-10.24 0-17.066667-6.826667-17.066667-17.066667s6.826667-17.066667 17.066667-17.066667h648.533333c10.24 0 17.066667 6.826667 17.066667 17.066667s-6.826667 17.066667-17.066667 17.066667zM701.44 375.466667h-341.333333c-10.24 0-17.066667-6.826667-17.066667-17.066667s6.826667-17.066667 17.066667-17.066667h341.333333c10.24 0 17.066667 6.826667 17.066667 17.066667s-6.826667 17.066667-17.066667 17.066667zM1008.64 477.866667h-648.533333c-10.24 0-17.066667-6.826667-17.066667-17.066667s6.826667-17.066667 17.066667-17.066667h648.533333c10.24 0 17.066667 6.826667 17.066667 17.066667s-6.826667 17.066667-17.066667 17.066667zM701.44 580.266667h-341.333333c-10.24 0-17.066667-6.826667-17.066667-17.066667s6.826667-17.066667 17.066667-17.066667h341.333333c10.24 0 17.066667 6.826667 17.066667 17.066667s-6.826667 17.066667-17.066667 17.066667zM1008.64 682.666667h-648.533333c-10.24 0-17.066667-6.826667-17.066667-17.066667s6.826667-17.066667 17.066667-17.066667h648.533333c10.24 0 17.066667 6.826667 17.066667 17.066667s-6.826667 17.066667-17.066667 17.066667zM701.44 785.066667h-341.333333c-10.24 0-17.066667-6.826667-17.066667-17.066667s6.826667-17.066667 17.066667-17.066667h341.333333c10.24 0 17.066667 6.826667 17.066667 17.066667s-6.826667 17.066667-17.066667 17.066667z" fill="" p-id="5837"></path><path d="M189.44 716.8c-3.413333 0-10.24-3.413333-13.653333-3.413333l-170.666667-170.666667c-6.826667-6.826667-6.826667-17.066667 0-23.893333l170.666667-170.666667c6.826667-6.826667 13.653333-6.826667 20.48-6.826667 6.826667 3.413333 10.24 10.24 10.24 17.066667v341.333333c0 6.826667-3.413333 13.653333-10.24 17.066667h-6.826667z m-146.773333-187.733333L172.373333 658.773333v-259.413333l-129.706666 129.706667z" fill="" p-id="5838"></path><path d="M291.84 887.466667c-10.24 0-17.066667-6.826667-17.066667-17.066667v-716.8c0-10.24 6.826667-17.066667 17.066667-17.066667s17.066667 6.826667 17.066667 17.066667v716.8c0 10.24-6.826667 17.066667-17.066667 17.066667z" fill="" p-id="5839"></path></svg>