<?xml version="1.0" standalone="no"?><!DOCTYPE svg PUBLIC "-//W3C//DTD SVG 1.1//EN" "http://www.w3.org/Graphics/SVG/1.1/DTD/svg11.dtd"><svg t="1645972777995" class="icon" viewBox="0 0 1024 1024" version="1.1" xmlns="http://www.w3.org/2000/svg" p-id="1728" xmlns:xlink="http://www.w3.org/1999/xlink" width="32" height="32"><defs><style type="text/css"></style></defs><path d="M1024 960a64 64 0 0 1-64 64H64a64 64 0 0 1-64-64V320a64 64 0 0 1 64-64h896a64 64 0 0 1 64 64v640z" fill="#EDD87E" p-id="1729"></path><path d="M960 128H512V64a64 64 0 0 0-64-64H64a64 64 0 0 0-64 64v256a64 64 0 0 1 64-64h896a64 64 0 0 1 64 64V192a64 64 0 0 0-64-64z" fill="#434854" p-id="1730"></path><path d="M960 224H64a64 64 0 0 0-64 64v32a64 64 0 0 1 64-64h896a64 64 0 0 1 64 64V288a64 64 0 0 0-64-64z" fill="" p-id="1731"></path><path d="M128 192h768v64H128z" fill="#EAEAEA" p-id="1732"></path><path d="M480 448h288v128h-288zM256 448h192v128H256zM480 608h288v96h-288zM256 608h192v96H256zM480 736h288v96h-288zM256 736h192v96H256z" fill="" p-id="1733"></path></svg>