<?xml version="1.0" standalone="no"?><!DOCTYPE svg PUBLIC "-//W3C//DTD SVG 1.1//EN" "http://www.w3.org/Graphics/SVG/1.1/DTD/svg11.dtd"><svg t="1646227243431" class="icon" viewBox="0 0 1024 1024" version="1.1" xmlns="http://www.w3.org/2000/svg" p-id="29810" xmlns:xlink="http://www.w3.org/1999/xlink" width="32" height="32"><defs><style type="text/css"></style></defs><path d="M512 930.91c-231.364 0-418.91-187.546-418.91-418.91 0-231.364 187.546-418.91 418.91-418.91 231.364 0 418.91 187.546 418.91 418.91 0 231.364-187.546 418.91-418.91 418.91z" fill="#319BFD" p-id="29811"></path><path d="M558.546 651.636v93.092h-93.092v-93.092h93.092zM512 294.4c68.636 0.208 136.68 40.72 136.68 118.552 0 105.54-97.116 105.54-97.116 153.694v21.5h-79.128V559.5c0-70.674 96.724-91.534 98.778-122.728 2.052-31.194-20.446-58.632-51.436-62.73-30.992-4.1-59.848 16.546-65.976 47.2l-77.624-15.548c12.972-64.72 69.814-111.298 135.822-111.292z" fill="#FFFFFF" p-id="29812"></path></svg>