<?xml version="1.0" standalone="no"?><!DOCTYPE svg PUBLIC "-//W3C//DTD SVG 1.1//EN" "http://www.w3.org/Graphics/SVG/1.1/DTD/svg11.dtd"><svg t="1646225986148" class="icon" viewBox="0 0 1024 1024" version="1.1" xmlns="http://www.w3.org/2000/svg" p-id="4633" xmlns:xlink="http://www.w3.org/1999/xlink" width="32" height="32"><defs><style type="text/css"></style></defs><path d="M904.533333 0H385.706667c-3.413333 0-3.413333 3.413333-6.826667 3.413333l-273.066667 273.066667s-3.413333 3.413333-3.413333 6.826667v723.626666c0 10.24 6.826667 17.066667 17.066667 17.066667h785.066666c10.24 0 17.066667-6.826667 17.066667-17.066667V17.066667c0-10.24-6.826667-17.066667-17.066667-17.066667zM238.933333 870.4c0 10.24-6.826667 17.066667-17.066666 17.066667s-17.066667-6.826667-17.066667-17.066667v-102.4c0-10.24 6.826667-17.066667 17.066667-17.066667s17.066667 6.826667 17.066666 17.066667v102.4z m102.4 0c0 10.24-6.826667 17.066667-17.066666 17.066667s-17.066667-6.826667-17.066667-17.066667v-204.8c0-10.24 6.826667-17.066667 17.066667-17.066667s17.066667 6.826667 17.066666 17.066667v204.8zM375.466667 273.066667H160.426667L375.466667 58.026667V273.066667z m68.266666 597.333333c0 10.24-6.826667 17.066667-17.066666 17.066667s-17.066667-6.826667-17.066667-17.066667v-341.333333c0-10.24 6.826667-17.066667 17.066667-17.066667s17.066667 6.826667 17.066666 17.066667v341.333333z m0-580.266667c0-88.746667 64.853333-167.253333 150.186667-184.32 3.413333 0 10.24 0 13.653333 3.413334 3.413333 3.413333 6.826667 10.24 6.826667 13.653333v133.12c0 27.306667 23.893333 51.2 51.2 51.2h133.12c6.826667 0 10.24 3.413333 13.653333 6.826667 3.413333 3.413333 3.413333 10.24 3.413334 13.653333-17.066667 88.746667-95.573333 150.186667-184.32 150.186667-102.4 0-187.733333-85.333333-187.733334-187.733334zM802.133333 887.466667h-273.066666c-10.24 0-17.066667-6.826667-17.066667-17.066667s6.826667-17.066667 17.066667-17.066667h273.066666c10.24 0 17.066667 6.826667 17.066667 17.066667s-6.826667 17.066667-17.066667 17.066667z m0-136.533334h-273.066666c-10.24 0-17.066667-6.826667-17.066667-17.066666s6.826667-17.066667 17.066667-17.066667h273.066666c10.24 0 17.066667 6.826667 17.066667 17.066667s-6.826667 17.066667-17.066667 17.066666z m0-136.533333h-273.066666c-10.24 0-17.066667-6.826667-17.066667-17.066667s6.826667-17.066667 17.066667-17.066666h273.066666c10.24 0 17.066667 6.826667 17.066667 17.066666s-6.826667 17.066667-17.066667 17.066667z m34.133334-341.333333h-170.666667c-10.24 0-17.066667-6.826667-17.066667-17.066667v-170.666667c0-10.24 6.826667-17.066667 17.066667-17.066666 102.4 0 187.733333 85.333333 187.733333 187.733333 0 10.24-6.826667 17.066667-17.066666 17.066667z" fill="" p-id="4634"></path></svg>