<?xml version="1.0" standalone="no"?><!DOCTYPE svg PUBLIC "-//W3C//DTD SVG 1.1//EN" "http://www.w3.org/Graphics/SVG/1.1/DTD/svg11.dtd"><svg t="1646234702769" class="icon" viewBox="0 0 1024 1024" version="1.1" xmlns="http://www.w3.org/2000/svg" p-id="38468" xmlns:xlink="http://www.w3.org/1999/xlink" width="32" height="32"><defs><style type="text/css"></style></defs><path d="M882.176 469.504c9.216 0 19.456 3.072 26.624 10.24 14.848 14.848 14.848 37.376 0 52.224l-358.4 358.4-66.048 13.824 13.824-66.048 358.4-358.4c7.168-7.168 15.872-10.24 25.6-10.24zM400.896 99.84c102.4 0 184.832 82.432 184.832 184.832s-82.432 184.832-184.832 184.832-184.832-82.432-184.832-184.832S298.496 99.84 400.896 99.84z m0-74.24c-142.336 0-259.072 116.224-259.072 259.072 0 89.088 45.568 168.448 114.688 215.04-132.096 56.832-225.28 187.392-225.28 339.968h74.24c0-163.84 132.096-295.936 295.936-295.936 79.36 0 150.528 32.256 203.264 83.456l-166.4 166.4-8.192 8.192-2.56 11.776-25.6 130.56-11.776 54.272 54.272-11.776 130.56-25.6 11.776-2.56 8.192-8.192 365.568-365.568c43.008-43.008 43.008-114.176 0-157.184-21.504-21.504-50.176-32.256-78.848-32.256-28.16 0-56.32 10.24-77.312 31.232l-1.024 1.024-145.92 145.92c-32.256-31.232-70.656-56.32-112.128-74.24 69.12-46.592 114.688-125.952 114.688-215.04 0-141.824-116.224-258.56-259.072-258.56z" p-id="38469"></path></svg>