<?xml version="1.0" standalone="no"?><!DOCTYPE svg PUBLIC "-//W3C//DTD SVG 1.1//EN" "http://www.w3.org/Graphics/SVG/1.1/DTD/svg11.dtd"><svg t="1646228606081" class="icon" viewBox="0 0 1024 1024" version="1.1" xmlns="http://www.w3.org/2000/svg" p-id="5084" xmlns:xlink="http://www.w3.org/1999/xlink" width="32" height="32"><defs><style type="text/css"></style></defs><path d="M358.4 119.466667H17.066667C6.826667 119.466667 0 112.64 0 102.4s6.826667-17.066667 17.066667-17.066667h341.333333c10.24 0 17.066667 6.826667 17.066667 17.066667s-6.826667 17.066667-17.066667 17.066667zM358.4 221.866667H17.066667C6.826667 221.866667 0 215.04 0 204.8s6.826667-17.066667 17.066667-17.066667h341.333333c10.24 0 17.066667 6.826667 17.066667 17.066667s-6.826667 17.066667-17.066667 17.066667zM358.4 324.266667H17.066667C6.826667 324.266667 0 317.44 0 307.2s6.826667-17.066667 17.066667-17.066667h341.333333c10.24 0 17.066667 6.826667 17.066667 17.066667s-6.826667 17.066667-17.066667 17.066667zM358.4 426.666667H17.066667c-10.24 0-17.066667-6.826667-17.066667-17.066667s6.826667-17.066667 17.066667-17.066667h341.333333c10.24 0 17.066667 6.826667 17.066667 17.066667s-6.826667 17.066667-17.066667 17.066667zM358.4 529.066667H17.066667c-10.24 0-17.066667-6.826667-17.066667-17.066667s6.826667-17.066667 17.066667-17.066667h341.333333c10.24 0 17.066667 6.826667 17.066667 17.066667s-6.826667 17.066667-17.066667 17.066667zM358.4 631.466667H17.066667c-10.24 0-17.066667-6.826667-17.066667-17.066667s6.826667-17.066667 17.066667-17.066667h341.333333c10.24 0 17.066667 6.826667 17.066667 17.066667s-6.826667 17.066667-17.066667 17.066667zM1006.933333 733.866667H17.066667c-10.24 0-17.066667-6.826667-17.066667-17.066667s6.826667-17.066667 17.066667-17.066667h989.866666c10.24 0 17.066667 6.826667 17.066667 17.066667s-6.826667 17.066667-17.066667 17.066667zM1006.933333 836.266667H17.066667c-10.24 0-17.066667-6.826667-17.066667-17.066667s6.826667-17.066667 17.066667-17.066667h989.866666c10.24 0 17.066667 6.826667 17.066667 17.066667s-6.826667 17.066667-17.066667 17.066667zM1006.933333 938.666667H17.066667c-10.24 0-17.066667-6.826667-17.066667-17.066667s6.826667-17.066667 17.066667-17.066667h989.866666c10.24 0 17.066667 6.826667 17.066667 17.066667s-6.826667 17.066667-17.066667 17.066667zM1006.933333 631.466667h-512c-10.24 0-17.066667-6.826667-17.066666-17.066667V102.4c0-10.24 6.826667-17.066667 17.066666-17.066667h512c10.24 0 17.066667 6.826667 17.066667 17.066667v512c0 10.24-6.826667 17.066667-17.066667 17.066667z m-494.933333-34.133334h477.866667v-477.866666H512v477.866666z" fill="" p-id="5085"></path><path d="M938.666667 563.2h-375.466667c-6.826667 0-10.24-3.413333-13.653333-6.826667-3.413333-3.413333-3.413333-10.24-3.413334-17.066666l102.4-273.066667c3.413333-6.826667 6.826667-10.24 13.653334-10.24s13.653333 3.413333 17.066666 10.24l75.093334 150.186667 68.266666-54.613334c3.413333-3.413333 10.24-3.413333 13.653334-3.413333 3.413333 0 10.24 3.413333 10.24 6.826667l102.4 170.666666c3.413333 6.826667 3.413333 10.24 0 17.066667s-3.413333 10.24-10.24 10.24z m-351.573334-34.133333h320.853334l-78.506667-129.706667-71.68 54.613333c-3.413333 3.413333-10.24 3.413333-13.653333 3.413334-3.413333 0-10.24-3.413333-10.24-10.24l-68.266667-136.533334-78.506667 218.453334zM836.266667 324.266667C788.48 324.266667 750.933333 286.72 750.933333 238.933333s37.546667-85.333333 85.333334-85.333333S921.6 191.146667 921.6 238.933333s-37.546667 85.333333-85.333333 85.333334z m0-136.533334c-27.306667 0-51.2 23.893333-51.2 51.2s23.893333 51.2 51.2 51.2S887.466667 266.24 887.466667 238.933333s-23.893333-51.2-51.2-51.2z" fill="" p-id="5086"></path></svg>