<?xml version="1.0" standalone="no"?><!DOCTYPE svg PUBLIC "-//W3C//DTD SVG 1.1//EN" "http://www.w3.org/Graphics/SVG/1.1/DTD/svg11.dtd"><svg t="1645972053003" class="icon" viewBox="0 0 1024 1024" version="1.1" xmlns="http://www.w3.org/2000/svg" p-id="12456" xmlns:xlink="http://www.w3.org/1999/xlink" width="32" height="32"><defs><style type="text/css"></style></defs><path d="M512 161.28a21.333333 21.333333 0 0 1 10.24 2.56l283.733333 156.16-283.733333 156.16a21.76 21.76 0 0 1-20.48 0L218.026667 320l283.733333-156.16a21.333333 21.333333 0 0 1 10.24-2.56m0-64a87.466667 87.466667 0 0 0-42.666667 10.666667L153.173333 282.453333a42.666667 42.666667 0 0 0 0 75.093334L469.333333 532.053333a85.333333 85.333333 0 0 0 81.92 0l317.866667-174.506666a42.666667 42.666667 0 0 0 0-75.093334L554.666667 107.946667a87.466667 87.466667 0 0 0-42.666667-10.666667zM512 906.666667a85.333333 85.333333 0 0 1-37.973333-8.96l-317.866667-158.72A32 32 0 1 1 185.173333 682.666667l317.44 158.72a20.906667 20.906667 0 0 0 18.773334 0L838.826667 682.666667a32 32 0 1 1 28.586666 57.173333L549.973333 896a85.333333 85.333333 0 0 1-37.973333 10.666667z" fill="#333333" p-id="12457"></path><path d="M512 640l-320-158.72v69.12a42.666667 42.666667 0 0 0 23.466667 37.973333l277.333333 136.96a42.666667 42.666667 0 0 0 38.4 0L810.666667 588.373333a42.666667 42.666667 0 0 0 23.466666-37.973333v-69.12z" fill="#DCB56D" p-id="12458"></path></svg>